solid ascii
  facet normal 1.110223e-016 1.000000e+000 0.000000e+000
    outer loop
      vertex   -2.220446e-015 2.000000e+001 2.000000e+001
      vertex   2.000000e+001 2.000000e+001 2.000000e+001
      vertex   -2.220446e-015 2.000000e+001 0.000000e+000
    endloop
  endfacet
  facet normal 1.110223e-016 1.000000e+000 0.000000e+000
    outer loop
      vertex   -2.220446e-015 2.000000e+001 0.000000e+000
      vertex   2.000000e+001 2.000000e+001 2.000000e+001
      vertex   2.000000e+001 2.000000e+001 0.000000e+000
    endloop
  endfacet
  facet normal 1.000000e+000 1.110223e-016 0.000000e+000
    outer loop
      vertex   2.000000e+001 2.000000e+001 2.000000e+001
      vertex   2.000000e+001 0.000000e+000 2.000000e+001
      vertex   2.000000e+001 2.000000e+001 0.000000e+000
    endloop
  endfacet
  facet normal 1.000000e+000 1.110223e-016 0.000000e+000
    outer loop
      vertex   2.000000e+001 2.000000e+001 0.000000e+000
      vertex   2.000000e+001 0.000000e+000 2.000000e+001
      vertex   2.000000e+001 0.000000e+000 0.000000e+000
    endloop
  endfacet
  facet normal -0.000000e+000 -1.000000e+000 -0.000000e+000
    outer loop
      vertex   2.000000e+001 0.000000e+000 2.000000e+001
      vertex   0.000000e+000 0.000000e+000 2.000000e+001
      vertex   2.000000e+001 0.000000e+000 0.000000e+000
    endloop
  endfacet
  facet normal -0.000000e+000 -1.000000e+000 -0.000000e+000
    outer loop
      vertex   2.000000e+001 0.000000e+000 0.000000e+000
      vertex   0.000000e+000 0.000000e+000 2.000000e+001
      vertex   0.000000e+000 0.000000e+000 0.000000e+000
    endloop
  endfacet
  facet normal -1.000000e+000 -1.110223e-016 0.000000e+000
    outer loop
      vertex   0.000000e+000 0.000000e+000 2.000000e+001
      vertex   -2.220446e-015 2.000000e+001 2.000000e+001
      vertex   0.000000e+000 0.000000e+000 0.000000e+000
    endloop
  endfacet
  facet normal -1.000000e+000 -1.110223e-016 -0.000000e+000
    outer loop
      vertex   0.000000e+000 0.000000e+000 0.000000e+000
      vertex   -2.220446e-015 2.000000e+001 2.000000e+001
      vertex   -2.220446e-015 2.000000e+001 0.000000e+000
    endloop
  endfacet
  facet normal 0.000000e+000 0.000000e+000 1.000000e+000
    outer loop
      vertex   2.000000e+001 2.000000e+001 2.000000e+001
      vertex   -2.220446e-015 2.000000e+001 2.000000e+001
      vertex   2.000000e+001 0.000000e+000 2.000000e+001
    endloop
  endfacet
  facet normal 0.000000e+000 0.000000e+000 1.000000e+000
    outer loop
      vertex   2.000000e+001 0.000000e+000 2.000000e+001
      vertex   -2.220446e-015 2.000000e+001 2.000000e+001
      vertex   0.000000e+000 0.000000e+000 2.000000e+001
    endloop
  endfacet
  facet normal 0.000000e+000 -0.000000e+000 -1.000000e+000
    outer loop
      vertex   -2.220446e-015 2.000000e+001 0.000000e+000
      vertex   2.000000e+001 2.000000e+001 0.000000e+000
      vertex   0.000000e+000 0.000000e+000 0.000000e+000
    endloop
  endfacet
  facet normal 0.000000e+000 0.000000e+000 -1.000000e+000
    outer loop
      vertex   0.000000e+000 0.000000e+000 0.000000e+000
      vertex   2.000000e+001 2.000000e+001 0.000000e+000
      vertex   2.000000e+001 0.000000e+000 0.000000e+000
    endloop
  endfacet
endsolid
