solid ascii
  facet normal -9.987955e-001 4.906767e-002 0.000000e+000
    outer loop
      vertex   0.000000e+000 1.200000e+001 0.000000e+000
      vertex   0.000000e+000 1.200000e+001 6.000000e+000
      vertex   1.926109e-002 1.239207e+001 0.000000e+000
    endloop
  endfacet
  facet normal -9.987955e-001 4.906767e-002 0.000000e+000
    outer loop
      vertex   1.926109e-002 1.239207e+001 0.000000e+000
      vertex   0.000000e+000 1.200000e+001 6.000000e+000
      vertex   1.926109e-002 1.239207e+001 6.000000e+000
    endloop
  endfacet
  facet normal -9.891765e-001 1.467305e-001 0.000000e+000
    outer loop
      vertex   7.685888e-002 1.278036e+001 6.000000e+000
      vertex   1.926109e-002 1.239207e+001 0.000000e+000
      vertex   1.926109e-002 1.239207e+001 6.000000e+000
    endloop
  endfacet
  facet normal -9.891765e-001 1.467305e-001 0.000000e+000
    outer loop
      vertex   7.685888e-002 1.278036e+001 6.000000e+000
      vertex   7.685888e-002 1.278036e+001 0.000000e+000
      vertex   1.926109e-002 1.239207e+001 0.000000e+000
    endloop
  endfacet
  facet normal -9.700313e-001 2.429802e-001 0.000000e+000
    outer loop
      vertex   7.685888e-002 1.278036e+001 6.000000e+000
      vertex   1.722387e-001 1.316114e+001 6.000000e+000
      vertex   7.685888e-002 1.278036e+001 0.000000e+000
    endloop
  endfacet
  facet normal -9.700313e-001 2.429802e-001 0.000000e+000
    outer loop
      vertex   7.685888e-002 1.278036e+001 0.000000e+000
      vertex   1.722387e-001 1.316114e+001 6.000000e+000
      vertex   1.722387e-001 1.316114e+001 0.000000e+000
    endloop
  endfacet
  facet normal -9.415441e-001 3.368899e-001 0.000000e+000
    outer loop
      vertex   1.722387e-001 1.316114e+001 0.000000e+000
      vertex   1.722387e-001 1.316114e+001 6.000000e+000
      vertex   3.044819e-001 1.353073e+001 6.000000e+000
    endloop
  endfacet
  facet normal -9.039893e-001 4.275551e-001 0.000000e+000
    outer loop
      vertex   3.044819e-001 1.353073e+001 0.000000e+000
      vertex   3.044819e-001 1.353073e+001 6.000000e+000
      vertex   4.723149e-001 1.388559e+001 0.000000e+000
    endloop
  endfacet
  facet normal -9.415441e-001 3.368899e-001 0.000000e+000
    outer loop
      vertex   3.044819e-001 1.353073e+001 0.000000e+000
      vertex   1.722387e-001 1.316114e+001 0.000000e+000
      vertex   3.044819e-001 1.353073e+001 6.000000e+000
    endloop
  endfacet
  facet normal -9.039893e-001 4.275551e-001 0.000000e+000
    outer loop
      vertex   3.044819e-001 1.353073e+001 6.000000e+000
      vertex   4.723149e-001 1.388559e+001 6.000000e+000
      vertex   4.723149e-001 1.388559e+001 0.000000e+000
    endloop
  endfacet
  facet normal -8.577286e-001 5.141027e-001 0.000000e+000
    outer loop
      vertex   4.723149e-001 1.388559e+001 0.000000e+000
      vertex   4.723149e-001 1.388559e+001 6.000000e+000
      vertex   6.741216e-001 1.422228e+001 6.000000e+000
    endloop
  endfacet
  facet normal -8.032075e-001 5.956993e-001 0.000000e+000
    outer loop
      vertex   6.741216e-001 1.422228e+001 0.000000e+000
      vertex   6.741216e-001 1.422228e+001 6.000000e+000
      vertex   9.079582e-001 1.453757e+001 6.000000e+000
    endloop
  endfacet
  facet normal -7.409511e-001 6.715590e-001 0.000000e+000
    outer loop
      vertex   9.079582e-001 1.453757e+001 0.000000e+000
      vertex   9.079582e-001 1.453757e+001 6.000000e+000
      vertex   1.171573e+000 1.482843e+001 6.000000e+000
    endloop
  endfacet
  facet normal -6.715590e-001 7.409511e-001 0.000000e+000
    outer loop
      vertex   1.171573e+000 1.482843e+001 0.000000e+000
      vertex   1.171573e+000 1.482843e+001 6.000000e+000
      vertex   1.462427e+000 1.509204e+001 6.000000e+000
    endloop
  endfacet
  facet normal -5.956993e-001 8.032075e-001 0.000000e+000
    outer loop
      vertex   1.462427e+000 1.509204e+001 0.000000e+000
      vertex   1.462427e+000 1.509204e+001 6.000000e+000
      vertex   1.777719e+000 1.532588e+001 0.000000e+000
    endloop
  endfacet
  facet normal -6.715590e-001 7.409511e-001 0.000000e+000
    outer loop
      vertex   1.462427e+000 1.509204e+001 0.000000e+000
      vertex   1.171573e+000 1.482843e+001 0.000000e+000
      vertex   1.462427e+000 1.509204e+001 6.000000e+000
    endloop
  endfacet
  facet normal -5.956993e-001 8.032075e-001 0.000000e+000
    outer loop
      vertex   1.462427e+000 1.509204e+001 6.000000e+000
      vertex   1.777719e+000 1.532588e+001 6.000000e+000
      vertex   1.777719e+000 1.532588e+001 0.000000e+000
    endloop
  endfacet
  facet normal -5.141027e-001 8.577286e-001 0.000000e+000
    outer loop
      vertex   1.777719e+000 1.532588e+001 0.000000e+000
      vertex   1.777719e+000 1.532588e+001 6.000000e+000
      vertex   2.114413e+000 1.552769e+001 6.000000e+000
    endloop
  endfacet
  facet normal -4.275551e-001 9.039893e-001 0.000000e+000
    outer loop
      vertex   2.114413e+000 1.552769e+001 0.000000e+000
      vertex   2.114413e+000 1.552769e+001 6.000000e+000
      vertex   2.469266e+000 1.569552e+001 6.000000e+000
    endloop
  endfacet
  facet normal -3.368899e-001 9.415441e-001 0.000000e+000
    outer loop
      vertex   2.469266e+000 1.569552e+001 0.000000e+000
      vertex   2.469266e+000 1.569552e+001 6.000000e+000
      vertex   2.838861e+000 1.582776e+001 6.000000e+000
    endloop
  endfacet
  facet normal -2.429802e-001 9.700313e-001 0.000000e+000
    outer loop
      vertex   2.838861e+000 1.582776e+001 0.000000e+000
      vertex   2.838861e+000 1.582776e+001 6.000000e+000
      vertex   3.219639e+000 1.592314e+001 6.000000e+000
    endloop
  endfacet
  facet normal -1.467305e-001 9.891765e-001 0.000000e+000
    outer loop
      vertex   3.219639e+000 1.592314e+001 0.000000e+000
      vertex   3.219639e+000 1.592314e+001 6.000000e+000
      vertex   3.607931e+000 1.598074e+001 0.000000e+000
    endloop
  endfacet
  facet normal -2.429802e-001 9.700313e-001 0.000000e+000
    outer loop
      vertex   3.219639e+000 1.592314e+001 0.000000e+000
      vertex   2.838861e+000 1.582776e+001 0.000000e+000
      vertex   3.219639e+000 1.592314e+001 6.000000e+000
    endloop
  endfacet
  facet normal -1.467305e-001 9.891765e-001 0.000000e+000
    outer loop
      vertex   3.219639e+000 1.592314e+001 6.000000e+000
      vertex   3.607931e+000 1.598074e+001 6.000000e+000
      vertex   3.607931e+000 1.598074e+001 0.000000e+000
    endloop
  endfacet
  facet normal -4.906767e-002 9.987955e-001 0.000000e+000
    outer loop
      vertex   3.607931e+000 1.598074e+001 0.000000e+000
      vertex   3.607931e+000 1.598074e+001 6.000000e+000
      vertex   4.000000e+000 1.600000e+001 6.000000e+000
    endloop
  endfacet
  facet normal -4.906767e-002 9.987955e-001 0.000000e+000
    outer loop
      vertex   4.000000e+000 1.600000e+001 0.000000e+000
      vertex   3.607931e+000 1.598074e+001 0.000000e+000
      vertex   4.000000e+000 1.600000e+001 6.000000e+000
    endloop
  endfacet
  facet normal -3.368899e-001 9.415441e-001 0.000000e+000
    outer loop
      vertex   2.838861e+000 1.582776e+001 0.000000e+000
      vertex   2.469266e+000 1.569552e+001 0.000000e+000
      vertex   2.838861e+000 1.582776e+001 6.000000e+000
    endloop
  endfacet
  facet normal -4.275551e-001 9.039893e-001 0.000000e+000
    outer loop
      vertex   2.469266e+000 1.569552e+001 0.000000e+000
      vertex   2.114413e+000 1.552769e+001 0.000000e+000
      vertex   2.469266e+000 1.569552e+001 6.000000e+000
    endloop
  endfacet
  facet normal -5.141027e-001 8.577286e-001 0.000000e+000
    outer loop
      vertex   2.114413e+000 1.552769e+001 0.000000e+000
      vertex   1.777719e+000 1.532588e+001 0.000000e+000
      vertex   2.114413e+000 1.552769e+001 6.000000e+000
    endloop
  endfacet
  facet normal -7.409511e-001 6.715590e-001 0.000000e+000
    outer loop
      vertex   1.171573e+000 1.482843e+001 0.000000e+000
      vertex   9.079582e-001 1.453757e+001 0.000000e+000
      vertex   1.171573e+000 1.482843e+001 6.000000e+000
    endloop
  endfacet
  facet normal -8.032075e-001 5.956993e-001 0.000000e+000
    outer loop
      vertex   9.079582e-001 1.453757e+001 0.000000e+000
      vertex   6.741216e-001 1.422228e+001 0.000000e+000
      vertex   9.079582e-001 1.453757e+001 6.000000e+000
    endloop
  endfacet
  facet normal -8.577286e-001 5.141027e-001 0.000000e+000
    outer loop
      vertex   6.741216e-001 1.422228e+001 0.000000e+000
      vertex   4.723149e-001 1.388559e+001 0.000000e+000
      vertex   6.741216e-001 1.422228e+001 6.000000e+000
    endloop
  endfacet
  facet normal -2.467162e-016 1.000000e+000 0.000000e+000
    outer loop
      vertex   4.000000e+000 1.600000e+001 6.000000e+000
      vertex   2.200000e+001 1.600000e+001 6.000000e+000
      vertex   4.000000e+000 1.600000e+001 0.000000e+000
    endloop
  endfacet
  facet normal -2.467162e-016 1.000000e+000 0.000000e+000
    outer loop
      vertex   4.000000e+000 1.600000e+001 0.000000e+000
      vertex   2.200000e+001 1.600000e+001 6.000000e+000
      vertex   2.200000e+001 1.600000e+001 0.000000e+000
    endloop
  endfacet
  facet normal 4.906767e-002 9.987955e-001 0.000000e+000
    outer loop
      vertex   2.200000e+001 1.600000e+001 6.000000e+000
      vertex   2.239207e+001 1.598074e+001 6.000000e+000
      vertex   2.200000e+001 1.600000e+001 0.000000e+000
    endloop
  endfacet
  facet normal 4.906767e-002 9.987955e-001 0.000000e+000
    outer loop
      vertex   2.200000e+001 1.600000e+001 0.000000e+000
      vertex   2.239207e+001 1.598074e+001 6.000000e+000
      vertex   2.239207e+001 1.598074e+001 0.000000e+000
    endloop
  endfacet
  facet normal 1.467305e-001 9.891765e-001 -0.000000e+000
    outer loop
      vertex   2.239207e+001 1.598074e+001 0.000000e+000
      vertex   2.239207e+001 1.598074e+001 6.000000e+000
      vertex   2.278036e+001 1.592314e+001 6.000000e+000
    endloop
  endfacet
  facet normal 2.429802e-001 9.700313e-001 -0.000000e+000
    outer loop
      vertex   2.278036e+001 1.592314e+001 0.000000e+000
      vertex   2.278036e+001 1.592314e+001 6.000000e+000
      vertex   2.316114e+001 1.582776e+001 6.000000e+000
    endloop
  endfacet
  facet normal 3.368899e-001 9.415441e-001 -0.000000e+000
    outer loop
      vertex   2.316114e+001 1.582776e+001 0.000000e+000
      vertex   2.316114e+001 1.582776e+001 6.000000e+000
      vertex   2.353073e+001 1.569552e+001 0.000000e+000
    endloop
  endfacet
  facet normal 2.429802e-001 9.700313e-001 0.000000e+000
    outer loop
      vertex   2.316114e+001 1.582776e+001 0.000000e+000
      vertex   2.278036e+001 1.592314e+001 0.000000e+000
      vertex   2.316114e+001 1.582776e+001 6.000000e+000
    endloop
  endfacet
  facet normal 3.368899e-001 9.415441e-001 0.000000e+000
    outer loop
      vertex   2.316114e+001 1.582776e+001 6.000000e+000
      vertex   2.353073e+001 1.569552e+001 6.000000e+000
      vertex   2.353073e+001 1.569552e+001 0.000000e+000
    endloop
  endfacet
  facet normal 4.275551e-001 9.039893e-001 -0.000000e+000
    outer loop
      vertex   2.353073e+001 1.569552e+001 0.000000e+000
      vertex   2.353073e+001 1.569552e+001 6.000000e+000
      vertex   2.388559e+001 1.552769e+001 6.000000e+000
    endloop
  endfacet
  facet normal 5.141027e-001 8.577286e-001 -0.000000e+000
    outer loop
      vertex   2.388559e+001 1.552769e+001 0.000000e+000
      vertex   2.388559e+001 1.552769e+001 6.000000e+000
      vertex   2.422228e+001 1.532588e+001 6.000000e+000
    endloop
  endfacet
  facet normal 5.956993e-001 8.032075e-001 -0.000000e+000
    outer loop
      vertex   2.422228e+001 1.532588e+001 0.000000e+000
      vertex   2.422228e+001 1.532588e+001 6.000000e+000
      vertex   2.453757e+001 1.509204e+001 6.000000e+000
    endloop
  endfacet
  facet normal 6.715590e-001 7.409511e-001 -0.000000e+000
    outer loop
      vertex   2.453757e+001 1.509204e+001 0.000000e+000
      vertex   2.453757e+001 1.509204e+001 6.000000e+000
      vertex   2.482843e+001 1.482843e+001 6.000000e+000
    endloop
  endfacet
  facet normal 7.409511e-001 6.715590e-001 -0.000000e+000
    outer loop
      vertex   2.482843e+001 1.482843e+001 0.000000e+000
      vertex   2.482843e+001 1.482843e+001 6.000000e+000
      vertex   2.509204e+001 1.453757e+001 0.000000e+000
    endloop
  endfacet
  facet normal 6.715590e-001 7.409511e-001 0.000000e+000
    outer loop
      vertex   2.482843e+001 1.482843e+001 0.000000e+000
      vertex   2.453757e+001 1.509204e+001 0.000000e+000
      vertex   2.482843e+001 1.482843e+001 6.000000e+000
    endloop
  endfacet
  facet normal 7.409511e-001 6.715590e-001 0.000000e+000
    outer loop
      vertex   2.482843e+001 1.482843e+001 6.000000e+000
      vertex   2.509204e+001 1.453757e+001 6.000000e+000
      vertex   2.509204e+001 1.453757e+001 0.000000e+000
    endloop
  endfacet
  facet normal 8.032075e-001 5.956993e-001 -0.000000e+000
    outer loop
      vertex   2.509204e+001 1.453757e+001 0.000000e+000
      vertex   2.509204e+001 1.453757e+001 6.000000e+000
      vertex   2.532588e+001 1.422228e+001 6.000000e+000
    endloop
  endfacet
  facet normal 8.577286e-001 5.141027e-001 -0.000000e+000
    outer loop
      vertex   2.532588e+001 1.422228e+001 0.000000e+000
      vertex   2.532588e+001 1.422228e+001 6.000000e+000
      vertex   2.552769e+001 1.388559e+001 6.000000e+000
    endloop
  endfacet
  facet normal 9.039893e-001 4.275551e-001 -0.000000e+000
    outer loop
      vertex   2.552769e+001 1.388559e+001 0.000000e+000
      vertex   2.552769e+001 1.388559e+001 6.000000e+000
      vertex   2.569552e+001 1.353073e+001 6.000000e+000
    endloop
  endfacet
  facet normal 9.415441e-001 3.368899e-001 -0.000000e+000
    outer loop
      vertex   2.569552e+001 1.353073e+001 0.000000e+000
      vertex   2.569552e+001 1.353073e+001 6.000000e+000
      vertex   2.582776e+001 1.316114e+001 6.000000e+000
    endloop
  endfacet
  facet normal 9.700313e-001 2.429802e-001 -0.000000e+000
    outer loop
      vertex   2.582776e+001 1.316114e+001 0.000000e+000
      vertex   2.582776e+001 1.316114e+001 6.000000e+000
      vertex   2.592314e+001 1.278036e+001 0.000000e+000
    endloop
  endfacet
  facet normal 9.415441e-001 3.368899e-001 0.000000e+000
    outer loop
      vertex   2.582776e+001 1.316114e+001 0.000000e+000
      vertex   2.569552e+001 1.353073e+001 0.000000e+000
      vertex   2.582776e+001 1.316114e+001 6.000000e+000
    endloop
  endfacet
  facet normal 9.700313e-001 2.429802e-001 0.000000e+000
    outer loop
      vertex   2.582776e+001 1.316114e+001 6.000000e+000
      vertex   2.592314e+001 1.278036e+001 6.000000e+000
      vertex   2.592314e+001 1.278036e+001 0.000000e+000
    endloop
  endfacet
  facet normal 9.891765e-001 1.467305e-001 -0.000000e+000
    outer loop
      vertex   2.592314e+001 1.278036e+001 0.000000e+000
      vertex   2.592314e+001 1.278036e+001 6.000000e+000
      vertex   2.598074e+001 1.239207e+001 6.000000e+000
    endloop
  endfacet
  facet normal 9.987955e-001 4.906767e-002 -0.000000e+000
    outer loop
      vertex   2.598074e+001 1.239207e+001 0.000000e+000
      vertex   2.598074e+001 1.239207e+001 6.000000e+000
      vertex   2.600000e+001 1.200000e+001 6.000000e+000
    endloop
  endfacet
  facet normal 9.987955e-001 4.906767e-002 0.000000e+000
    outer loop
      vertex   2.600000e+001 1.200000e+001 0.000000e+000
      vertex   2.598074e+001 1.239207e+001 0.000000e+000
      vertex   2.600000e+001 1.200000e+001 6.000000e+000
    endloop
  endfacet
  facet normal 9.891765e-001 1.467305e-001 0.000000e+000
    outer loop
      vertex   2.598074e+001 1.239207e+001 0.000000e+000
      vertex   2.592314e+001 1.278036e+001 0.000000e+000
      vertex   2.598074e+001 1.239207e+001 6.000000e+000
    endloop
  endfacet
  facet normal 9.039893e-001 4.275551e-001 0.000000e+000
    outer loop
      vertex   2.569552e+001 1.353073e+001 0.000000e+000
      vertex   2.552769e+001 1.388559e+001 0.000000e+000
      vertex   2.569552e+001 1.353073e+001 6.000000e+000
    endloop
  endfacet
  facet normal 8.577286e-001 5.141027e-001 0.000000e+000
    outer loop
      vertex   2.552769e+001 1.388559e+001 0.000000e+000
      vertex   2.532588e+001 1.422228e+001 0.000000e+000
      vertex   2.552769e+001 1.388559e+001 6.000000e+000
    endloop
  endfacet
  facet normal 8.032075e-001 5.956993e-001 0.000000e+000
    outer loop
      vertex   2.532588e+001 1.422228e+001 0.000000e+000
      vertex   2.509204e+001 1.453757e+001 0.000000e+000
      vertex   2.532588e+001 1.422228e+001 6.000000e+000
    endloop
  endfacet
  facet normal 5.956993e-001 8.032075e-001 0.000000e+000
    outer loop
      vertex   2.453757e+001 1.509204e+001 0.000000e+000
      vertex   2.422228e+001 1.532588e+001 0.000000e+000
      vertex   2.453757e+001 1.509204e+001 6.000000e+000
    endloop
  endfacet
  facet normal 5.141027e-001 8.577286e-001 0.000000e+000
    outer loop
      vertex   2.422228e+001 1.532588e+001 0.000000e+000
      vertex   2.388559e+001 1.552769e+001 0.000000e+000
      vertex   2.422228e+001 1.532588e+001 6.000000e+000
    endloop
  endfacet
  facet normal 4.275551e-001 9.039893e-001 0.000000e+000
    outer loop
      vertex   2.388559e+001 1.552769e+001 0.000000e+000
      vertex   2.353073e+001 1.569552e+001 0.000000e+000
      vertex   2.388559e+001 1.552769e+001 6.000000e+000
    endloop
  endfacet
  facet normal 1.467305e-001 9.891765e-001 0.000000e+000
    outer loop
      vertex   2.278036e+001 1.592314e+001 0.000000e+000
      vertex   2.239207e+001 1.598074e+001 0.000000e+000
      vertex   2.278036e+001 1.592314e+001 6.000000e+000
    endloop
  endfacet
  facet normal 1.000000e+000 0.000000e+000 0.000000e+000
    outer loop
      vertex   2.600000e+001 1.200000e+001 6.000000e+000
      vertex   2.600000e+001 3.000000e+000 6.000000e+000
      vertex   2.600000e+001 1.200000e+001 0.000000e+000
    endloop
  endfacet
  facet normal 1.000000e+000 0.000000e+000 0.000000e+000
    outer loop
      vertex   2.600000e+001 1.200000e+001 0.000000e+000
      vertex   2.600000e+001 3.000000e+000 6.000000e+000
      vertex   2.600000e+001 3.000000e+000 0.000000e+000
    endloop
  endfacet
  facet normal 9.987955e-001 -4.906767e-002 0.000000e+000
    outer loop
      vertex   2.600000e+001 3.000000e+000 6.000000e+000
      vertex   2.598555e+001 2.705949e+000 6.000000e+000
      vertex   2.600000e+001 3.000000e+000 0.000000e+000
    endloop
  endfacet
  facet normal 9.987955e-001 -4.906767e-002 0.000000e+000
    outer loop
      vertex   2.600000e+001 3.000000e+000 0.000000e+000
      vertex   2.598555e+001 2.705949e+000 6.000000e+000
      vertex   2.598555e+001 2.705949e+000 0.000000e+000
    endloop
  endfacet
  facet normal 9.891765e-001 -1.467305e-001 0.000000e+000
    outer loop
      vertex   2.598555e+001 2.705949e+000 0.000000e+000
      vertex   2.598555e+001 2.705949e+000 6.000000e+000
      vertex   2.594236e+001 2.414729e+000 6.000000e+000
    endloop
  endfacet
  facet normal 9.700313e-001 -2.429802e-001 0.000000e+000
    outer loop
      vertex   2.594236e+001 2.414729e+000 0.000000e+000
      vertex   2.594236e+001 2.414729e+000 6.000000e+000
      vertex   2.587082e+001 2.129146e+000 0.000000e+000
    endloop
  endfacet
  facet normal 9.891765e-001 -1.467305e-001 0.000000e+000
    outer loop
      vertex   2.594236e+001 2.414729e+000 0.000000e+000
      vertex   2.598555e+001 2.705949e+000 0.000000e+000
      vertex   2.594236e+001 2.414729e+000 6.000000e+000
    endloop
  endfacet
  facet normal 9.700313e-001 -2.429802e-001 0.000000e+000
    outer loop
      vertex   2.594236e+001 2.414729e+000 6.000000e+000
      vertex   2.587082e+001 2.129146e+000 6.000000e+000
      vertex   2.587082e+001 2.129146e+000 0.000000e+000
    endloop
  endfacet
  facet normal 9.415441e-001 -3.368899e-001 0.000000e+000
    outer loop
      vertex   2.587082e+001 2.129146e+000 0.000000e+000
      vertex   2.587082e+001 2.129146e+000 6.000000e+000
      vertex   2.577164e+001 1.851950e+000 6.000000e+000
    endloop
  endfacet
  facet normal 9.039893e-001 -4.275551e-001 0.000000e+000
    outer loop
      vertex   2.577164e+001 1.851950e+000 0.000000e+000
      vertex   2.577164e+001 1.851950e+000 6.000000e+000
      vertex   2.564576e+001 1.585810e+000 6.000000e+000
    endloop
  endfacet
  facet normal 8.577286e-001 -5.141027e-001 0.000000e+000
    outer loop
      vertex   2.564576e+001 1.585810e+000 0.000000e+000
      vertex   2.564576e+001 1.585810e+000 6.000000e+000
      vertex   2.549441e+001 1.333289e+000 6.000000e+000
    endloop
  endfacet
  facet normal 8.032075e-001 -5.956993e-001 0.000000e+000
    outer loop
      vertex   2.549441e+001 1.333289e+000 0.000000e+000
      vertex   2.549441e+001 1.333289e+000 6.000000e+000
      vertex   2.531903e+001 1.096820e+000 6.000000e+000
    endloop
  endfacet
  facet normal 7.409511e-001 -6.715590e-001 0.000000e+000
    outer loop
      vertex   2.531903e+001 1.096820e+000 0.000000e+000
      vertex   2.531903e+001 1.096820e+000 6.000000e+000
      vertex   2.512132e+001 8.786797e-001 0.000000e+000
    endloop
  endfacet
  facet normal 8.032075e-001 -5.956993e-001 0.000000e+000
    outer loop
      vertex   2.531903e+001 1.096820e+000 0.000000e+000
      vertex   2.549441e+001 1.333289e+000 0.000000e+000
      vertex   2.531903e+001 1.096820e+000 6.000000e+000
    endloop
  endfacet
  facet normal 7.409511e-001 -6.715590e-001 0.000000e+000
    outer loop
      vertex   2.531903e+001 1.096820e+000 6.000000e+000
      vertex   2.512132e+001 8.786797e-001 6.000000e+000
      vertex   2.512132e+001 8.786797e-001 0.000000e+000
    endloop
  endfacet
  facet normal 6.715590e-001 -7.409511e-001 0.000000e+000
    outer loop
      vertex   2.512132e+001 8.786797e-001 0.000000e+000
      vertex   2.512132e+001 8.786797e-001 6.000000e+000
      vertex   2.490318e+001 6.809686e-001 6.000000e+000
    endloop
  endfacet
  facet normal 5.956993e-001 -8.032075e-001 0.000000e+000
    outer loop
      vertex   2.490318e+001 6.809686e-001 0.000000e+000
      vertex   2.490318e+001 6.809686e-001 6.000000e+000
      vertex   2.466671e+001 5.055912e-001 6.000000e+000
    endloop
  endfacet
  facet normal 5.141027e-001 -8.577286e-001 0.000000e+000
    outer loop
      vertex   2.466671e+001 5.055912e-001 0.000000e+000
      vertex   2.466671e+001 5.055912e-001 6.000000e+000
      vertex   2.441419e+001 3.542362e-001 6.000000e+000
    endloop
  endfacet
  facet normal 4.275551e-001 -9.039893e-001 0.000000e+000
    outer loop
      vertex   2.441419e+001 3.542362e-001 0.000000e+000
      vertex   2.441419e+001 3.542362e-001 6.000000e+000
      vertex   2.414805e+001 2.283614e-001 6.000000e+000
    endloop
  endfacet
  facet normal 3.368899e-001 -9.415441e-001 0.000000e+000
    outer loop
      vertex   2.414805e+001 2.283614e-001 0.000000e+000
      vertex   2.414805e+001 2.283614e-001 6.000000e+000
      vertex   2.387085e+001 1.291790e-001 0.000000e+000
    endloop
  endfacet
  facet normal 4.275551e-001 -9.039893e-001 0.000000e+000
    outer loop
      vertex   2.414805e+001 2.283614e-001 0.000000e+000
      vertex   2.441419e+001 3.542362e-001 0.000000e+000
      vertex   2.414805e+001 2.283614e-001 6.000000e+000
    endloop
  endfacet
  facet normal 3.368899e-001 -9.415441e-001 0.000000e+000
    outer loop
      vertex   2.414805e+001 2.283614e-001 6.000000e+000
      vertex   2.387085e+001 1.291790e-001 6.000000e+000
      vertex   2.387085e+001 1.291790e-001 0.000000e+000
    endloop
  endfacet
  facet normal 2.429802e-001 -9.700313e-001 0.000000e+000
    outer loop
      vertex   2.387085e+001 1.291790e-001 0.000000e+000
      vertex   2.387085e+001 1.291790e-001 6.000000e+000
      vertex   2.358527e+001 5.764416e-002 6.000000e+000
    endloop
  endfacet
  facet normal 1.467305e-001 -9.891765e-001 0.000000e+000
    outer loop
      vertex   2.358527e+001 5.764416e-002 0.000000e+000
      vertex   2.358527e+001 5.764416e-002 6.000000e+000
      vertex   2.329405e+001 1.444582e-002 6.000000e+000
    endloop
  endfacet
  facet normal 4.906767e-002 -9.987955e-001 0.000000e+000
    outer loop
      vertex   2.329405e+001 1.444582e-002 0.000000e+000
      vertex   2.329405e+001 1.444582e-002 6.000000e+000
      vertex   2.300000e+001 1.665335e-015 6.000000e+000
    endloop
  endfacet
  facet normal 4.906767e-002 -9.987955e-001 0.000000e+000
    outer loop
      vertex   2.300000e+001 1.665335e-015 0.000000e+000
      vertex   2.329405e+001 1.444582e-002 0.000000e+000
      vertex   2.300000e+001 1.665335e-015 6.000000e+000
    endloop
  endfacet
  facet normal 1.467305e-001 -9.891765e-001 0.000000e+000
    outer loop
      vertex   2.329405e+001 1.444582e-002 0.000000e+000
      vertex   2.358527e+001 5.764416e-002 0.000000e+000
      vertex   2.329405e+001 1.444582e-002 6.000000e+000
    endloop
  endfacet
  facet normal 2.429802e-001 -9.700313e-001 0.000000e+000
    outer loop
      vertex   2.358527e+001 5.764416e-002 0.000000e+000
      vertex   2.387085e+001 1.291790e-001 0.000000e+000
      vertex   2.358527e+001 5.764416e-002 6.000000e+000
    endloop
  endfacet
  facet normal 5.141027e-001 -8.577286e-001 0.000000e+000
    outer loop
      vertex   2.441419e+001 3.542362e-001 0.000000e+000
      vertex   2.466671e+001 5.055912e-001 0.000000e+000
      vertex   2.441419e+001 3.542362e-001 6.000000e+000
    endloop
  endfacet
  facet normal 5.956993e-001 -8.032075e-001 0.000000e+000
    outer loop
      vertex   2.466671e+001 5.055912e-001 0.000000e+000
      vertex   2.490318e+001 6.809686e-001 0.000000e+000
      vertex   2.466671e+001 5.055912e-001 6.000000e+000
    endloop
  endfacet
  facet normal 6.715590e-001 -7.409511e-001 0.000000e+000
    outer loop
      vertex   2.490318e+001 6.809686e-001 0.000000e+000
      vertex   2.512132e+001 8.786797e-001 0.000000e+000
      vertex   2.490318e+001 6.809686e-001 6.000000e+000
    endloop
  endfacet
  facet normal 8.577286e-001 -5.141027e-001 0.000000e+000
    outer loop
      vertex   2.549441e+001 1.333289e+000 0.000000e+000
      vertex   2.564576e+001 1.585810e+000 0.000000e+000
      vertex   2.549441e+001 1.333289e+000 6.000000e+000
    endloop
  endfacet
  facet normal 9.039893e-001 -4.275551e-001 0.000000e+000
    outer loop
      vertex   2.564576e+001 1.585810e+000 0.000000e+000
      vertex   2.577164e+001 1.851950e+000 0.000000e+000
      vertex   2.564576e+001 1.585810e+000 6.000000e+000
    endloop
  endfacet
  facet normal 9.415441e-001 -3.368899e-001 0.000000e+000
    outer loop
      vertex   2.577164e+001 1.851950e+000 0.000000e+000
      vertex   2.587082e+001 2.129146e+000 0.000000e+000
      vertex   2.577164e+001 1.851950e+000 6.000000e+000
    endloop
  endfacet
  facet normal 1.119884e-015 -1.000000e+000 0.000000e+000
    outer loop
      vertex   2.300000e+001 1.665335e-015 6.000000e+000
      vertex   2.150000e+001 -1.449218e-017 6.000000e+000
      vertex   2.300000e+001 1.665335e-015 0.000000e+000
    endloop
  endfacet
  facet normal 1.119884e-015 -1.000000e+000 0.000000e+000
    outer loop
      vertex   2.300000e+001 1.665335e-015 0.000000e+000
      vertex   2.150000e+001 -1.449218e-017 6.000000e+000
      vertex   2.150000e+001 -1.449218e-017 0.000000e+000
    endloop
  endfacet
  facet normal -1.000000e+000 0.000000e+000 -0.000000e+000
    outer loop
      vertex   2.150000e+001 -1.449218e-017 6.000000e+000
      vertex   2.150000e+001 3.500000e+000 6.000000e+000
      vertex   2.150000e+001 -1.449218e-017 0.000000e+000
    endloop
  endfacet
  facet normal -1.000000e+000 0.000000e+000 0.000000e+000
    outer loop
      vertex   2.150000e+001 -1.449218e-017 0.000000e+000
      vertex   2.150000e+001 3.500000e+000 6.000000e+000
      vertex   2.150000e+001 3.500000e+000 0.000000e+000
    endloop
  endfacet
  facet normal -0.000000e+000 1.000000e+000 0.000000e+000
    outer loop
      vertex   2.150000e+001 3.500000e+000 6.000000e+000
      vertex   2.300000e+001 3.500000e+000 6.000000e+000
      vertex   2.150000e+001 3.500000e+000 0.000000e+000
    endloop
  endfacet
  facet normal -0.000000e+000 1.000000e+000 0.000000e+000
    outer loop
      vertex   2.150000e+001 3.500000e+000 0.000000e+000
      vertex   2.300000e+001 3.500000e+000 6.000000e+000
      vertex   2.300000e+001 3.500000e+000 0.000000e+000
    endloop
  endfacet
  facet normal -1.000000e+000 0.000000e+000 -0.000000e+000
    outer loop
      vertex   2.300000e+001 3.500000e+000 6.000000e+000
      vertex   2.300000e+001 1.100000e+001 6.000000e+000
      vertex   2.300000e+001 3.500000e+000 0.000000e+000
    endloop
  endfacet
  facet normal -1.000000e+000 0.000000e+000 0.000000e+000
    outer loop
      vertex   2.300000e+001 3.500000e+000 0.000000e+000
      vertex   2.300000e+001 1.100000e+001 6.000000e+000
      vertex   2.300000e+001 1.100000e+001 0.000000e+000
    endloop
  endfacet
  facet normal -0.000000e+000 -1.000000e+000 -0.000000e+000
    outer loop
      vertex   2.300000e+001 1.100000e+001 6.000000e+000
      vertex   2.000000e+001 1.100000e+001 6.000000e+000
      vertex   2.300000e+001 1.100000e+001 0.000000e+000
    endloop
  endfacet
  facet normal -0.000000e+000 -1.000000e+000 -0.000000e+000
    outer loop
      vertex   2.300000e+001 1.100000e+001 0.000000e+000
      vertex   2.000000e+001 1.100000e+001 6.000000e+000
      vertex   2.000000e+001 1.100000e+001 0.000000e+000
    endloop
  endfacet
  facet normal -1.000000e+000 -1.110223e-015 0.000000e+000
    outer loop
      vertex   2.000000e+001 1.100000e+001 6.000000e+000
      vertex   2.000000e+001 1.300000e+001 6.000000e+000
      vertex   2.000000e+001 1.100000e+001 0.000000e+000
    endloop
  endfacet
  facet normal -1.000000e+000 -1.110223e-015 -0.000000e+000
    outer loop
      vertex   2.000000e+001 1.100000e+001 0.000000e+000
      vertex   2.000000e+001 1.300000e+001 6.000000e+000
      vertex   2.000000e+001 1.300000e+001 0.000000e+000
    endloop
  endfacet
  facet normal -1.586033e-016 -1.000000e+000 0.000000e+000
    outer loop
      vertex   2.000000e+001 1.300000e+001 6.000000e+000
      vertex   6.000000e+000 1.300000e+001 6.000000e+000
      vertex   2.000000e+001 1.300000e+001 0.000000e+000
    endloop
  endfacet
  facet normal -1.586033e-016 -1.000000e+000 -0.000000e+000
    outer loop
      vertex   2.000000e+001 1.300000e+001 0.000000e+000
      vertex   6.000000e+000 1.300000e+001 6.000000e+000
      vertex   6.000000e+000 1.300000e+001 0.000000e+000
    endloop
  endfacet
  facet normal 1.000000e+000 0.000000e+000 0.000000e+000
    outer loop
      vertex   6.000000e+000 1.300000e+001 6.000000e+000
      vertex   6.000000e+000 1.100000e+001 6.000000e+000
      vertex   6.000000e+000 1.300000e+001 0.000000e+000
    endloop
  endfacet
  facet normal 1.000000e+000 0.000000e+000 0.000000e+000
    outer loop
      vertex   6.000000e+000 1.300000e+001 0.000000e+000
      vertex   6.000000e+000 1.100000e+001 6.000000e+000
      vertex   6.000000e+000 1.100000e+001 0.000000e+000
    endloop
  endfacet
  facet normal -0.000000e+000 -1.000000e+000 -0.000000e+000
    outer loop
      vertex   6.000000e+000 1.100000e+001 6.000000e+000
      vertex   3.000000e+000 1.100000e+001 6.000000e+000
      vertex   6.000000e+000 1.100000e+001 0.000000e+000
    endloop
  endfacet
  facet normal -0.000000e+000 -1.000000e+000 -0.000000e+000
    outer loop
      vertex   6.000000e+000 1.100000e+001 0.000000e+000
      vertex   3.000000e+000 1.100000e+001 6.000000e+000
      vertex   3.000000e+000 1.100000e+001 0.000000e+000
    endloop
  endfacet
  facet normal 1.000000e+000 0.000000e+000 0.000000e+000
    outer loop
      vertex   3.000000e+000 1.100000e+001 6.000000e+000
      vertex   3.000000e+000 3.500000e+000 6.000000e+000
      vertex   3.000000e+000 1.100000e+001 0.000000e+000
    endloop
  endfacet
  facet normal 1.000000e+000 0.000000e+000 0.000000e+000
    outer loop
      vertex   3.000000e+000 1.100000e+001 0.000000e+000
      vertex   3.000000e+000 3.500000e+000 6.000000e+000
      vertex   3.000000e+000 3.500000e+000 0.000000e+000
    endloop
  endfacet
  facet normal -0.000000e+000 1.000000e+000 0.000000e+000
    outer loop
      vertex   3.000000e+000 3.500000e+000 6.000000e+000
      vertex   4.500000e+000 3.500000e+000 6.000000e+000
      vertex   3.000000e+000 3.500000e+000 0.000000e+000
    endloop
  endfacet
  facet normal -0.000000e+000 1.000000e+000 0.000000e+000
    outer loop
      vertex   3.000000e+000 3.500000e+000 0.000000e+000
      vertex   4.500000e+000 3.500000e+000 6.000000e+000
      vertex   4.500000e+000 3.500000e+000 0.000000e+000
    endloop
  endfacet
  facet normal 1.000000e+000 0.000000e+000 0.000000e+000
    outer loop
      vertex   4.500000e+000 3.500000e+000 6.000000e+000
      vertex   4.500000e+000 0.000000e+000 6.000000e+000
      vertex   4.500000e+000 3.500000e+000 0.000000e+000
    endloop
  endfacet
  facet normal 1.000000e+000 0.000000e+000 0.000000e+000
    outer loop
      vertex   4.500000e+000 3.500000e+000 0.000000e+000
      vertex   4.500000e+000 0.000000e+000 6.000000e+000
      vertex   4.500000e+000 0.000000e+000 0.000000e+000
    endloop
  endfacet
  facet normal -0.000000e+000 -1.000000e+000 -0.000000e+000
    outer loop
      vertex   4.500000e+000 0.000000e+000 6.000000e+000
      vertex   3.000000e+000 0.000000e+000 6.000000e+000
      vertex   4.500000e+000 0.000000e+000 0.000000e+000
    endloop
  endfacet
  facet normal -0.000000e+000 -1.000000e+000 -0.000000e+000
    outer loop
      vertex   4.500000e+000 0.000000e+000 0.000000e+000
      vertex   3.000000e+000 0.000000e+000 6.000000e+000
      vertex   3.000000e+000 0.000000e+000 0.000000e+000
    endloop
  endfacet
  facet normal -4.906767e-002 -9.987955e-001 0.000000e+000
    outer loop
      vertex   3.000000e+000 0.000000e+000 6.000000e+000
      vertex   2.705949e+000 1.444582e-002 6.000000e+000
      vertex   3.000000e+000 0.000000e+000 0.000000e+000
    endloop
  endfacet
  facet normal -4.906767e-002 -9.987955e-001 -0.000000e+000
    outer loop
      vertex   3.000000e+000 0.000000e+000 0.000000e+000
      vertex   2.705949e+000 1.444582e-002 6.000000e+000
      vertex   2.705949e+000 1.444582e-002 0.000000e+000
    endloop
  endfacet
  facet normal -1.467305e-001 -9.891765e-001 0.000000e+000
    outer loop
      vertex   2.705949e+000 1.444582e-002 0.000000e+000
      vertex   2.705949e+000 1.444582e-002 6.000000e+000
      vertex   2.414729e+000 5.764416e-002 0.000000e+000
    endloop
  endfacet
  facet normal -1.467305e-001 -9.891765e-001 0.000000e+000
    outer loop
      vertex   2.414729e+000 5.764416e-002 0.000000e+000
      vertex   2.705949e+000 1.444582e-002 6.000000e+000
      vertex   2.414729e+000 5.764416e-002 6.000000e+000
    endloop
  endfacet
  facet normal -2.429802e-001 -9.700313e-001 0.000000e+000
    outer loop
      vertex   2.129146e+000 1.291790e-001 6.000000e+000
      vertex   2.414729e+000 5.764416e-002 0.000000e+000
      vertex   2.414729e+000 5.764416e-002 6.000000e+000
    endloop
  endfacet
  facet normal -2.429802e-001 -9.700313e-001 -0.000000e+000
    outer loop
      vertex   2.129146e+000 1.291790e-001 6.000000e+000
      vertex   2.129146e+000 1.291790e-001 0.000000e+000
      vertex   2.414729e+000 5.764416e-002 0.000000e+000
    endloop
  endfacet
  facet normal -3.368899e-001 -9.415441e-001 0.000000e+000
    outer loop
      vertex   2.129146e+000 1.291790e-001 6.000000e+000
      vertex   1.851950e+000 2.283614e-001 6.000000e+000
      vertex   2.129146e+000 1.291790e-001 0.000000e+000
    endloop
  endfacet
  facet normal -3.368899e-001 -9.415441e-001 -0.000000e+000
    outer loop
      vertex   2.129146e+000 1.291790e-001 0.000000e+000
      vertex   1.851950e+000 2.283614e-001 6.000000e+000
      vertex   1.851950e+000 2.283614e-001 0.000000e+000
    endloop
  endfacet
  facet normal -4.275551e-001 -9.039893e-001 0.000000e+000
    outer loop
      vertex   1.851950e+000 2.283614e-001 0.000000e+000
      vertex   1.851950e+000 2.283614e-001 6.000000e+000
      vertex   1.585810e+000 3.542362e-001 6.000000e+000
    endloop
  endfacet
  facet normal -5.141027e-001 -8.577286e-001 0.000000e+000
    outer loop
      vertex   1.585810e+000 3.542362e-001 0.000000e+000
      vertex   1.585810e+000 3.542362e-001 6.000000e+000
      vertex   1.333289e+000 5.055912e-001 6.000000e+000
    endloop
  endfacet
  facet normal -5.956993e-001 -8.032075e-001 0.000000e+000
    outer loop
      vertex   1.333289e+000 5.055912e-001 0.000000e+000
      vertex   1.333289e+000 5.055912e-001 6.000000e+000
      vertex   1.096820e+000 6.809686e-001 0.000000e+000
    endloop
  endfacet
  facet normal -5.141027e-001 -8.577286e-001 0.000000e+000
    outer loop
      vertex   1.333289e+000 5.055912e-001 0.000000e+000
      vertex   1.585810e+000 3.542362e-001 0.000000e+000
      vertex   1.333289e+000 5.055912e-001 6.000000e+000
    endloop
  endfacet
  facet normal -5.956993e-001 -8.032075e-001 -0.000000e+000
    outer loop
      vertex   1.333289e+000 5.055912e-001 6.000000e+000
      vertex   1.096820e+000 6.809686e-001 6.000000e+000
      vertex   1.096820e+000 6.809686e-001 0.000000e+000
    endloop
  endfacet
  facet normal -6.715590e-001 -7.409511e-001 0.000000e+000
    outer loop
      vertex   1.096820e+000 6.809686e-001 0.000000e+000
      vertex   1.096820e+000 6.809686e-001 6.000000e+000
      vertex   8.786797e-001 8.786797e-001 6.000000e+000
    endloop
  endfacet
  facet normal -7.409511e-001 -6.715590e-001 0.000000e+000
    outer loop
      vertex   8.786797e-001 8.786797e-001 0.000000e+000
      vertex   8.786797e-001 8.786797e-001 6.000000e+000
      vertex   6.809686e-001 1.096820e+000 6.000000e+000
    endloop
  endfacet
  facet normal -8.032075e-001 -5.956993e-001 0.000000e+000
    outer loop
      vertex   6.809686e-001 1.096820e+000 0.000000e+000
      vertex   6.809686e-001 1.096820e+000 6.000000e+000
      vertex   5.055912e-001 1.333289e+000 6.000000e+000
    endloop
  endfacet
  facet normal -8.577286e-001 -5.141027e-001 0.000000e+000
    outer loop
      vertex   5.055912e-001 1.333289e+000 0.000000e+000
      vertex   5.055912e-001 1.333289e+000 6.000000e+000
      vertex   3.542362e-001 1.585810e+000 6.000000e+000
    endloop
  endfacet
  facet normal -9.039893e-001 -4.275551e-001 0.000000e+000
    outer loop
      vertex   3.542362e-001 1.585810e+000 0.000000e+000
      vertex   3.542362e-001 1.585810e+000 6.000000e+000
      vertex   2.283614e-001 1.851950e+000 0.000000e+000
    endloop
  endfacet
  facet normal -8.577286e-001 -5.141027e-001 0.000000e+000
    outer loop
      vertex   3.542362e-001 1.585810e+000 0.000000e+000
      vertex   5.055912e-001 1.333289e+000 0.000000e+000
      vertex   3.542362e-001 1.585810e+000 6.000000e+000
    endloop
  endfacet
  facet normal -9.039893e-001 -4.275551e-001 -0.000000e+000
    outer loop
      vertex   3.542362e-001 1.585810e+000 6.000000e+000
      vertex   2.283614e-001 1.851950e+000 6.000000e+000
      vertex   2.283614e-001 1.851950e+000 0.000000e+000
    endloop
  endfacet
  facet normal -9.415441e-001 -3.368899e-001 0.000000e+000
    outer loop
      vertex   2.283614e-001 1.851950e+000 0.000000e+000
      vertex   2.283614e-001 1.851950e+000 6.000000e+000
      vertex   1.291790e-001 2.129146e+000 6.000000e+000
    endloop
  endfacet
  facet normal -9.700313e-001 -2.429802e-001 0.000000e+000
    outer loop
      vertex   1.291790e-001 2.129146e+000 0.000000e+000
      vertex   1.291790e-001 2.129146e+000 6.000000e+000
      vertex   5.764416e-002 2.414729e+000 6.000000e+000
    endloop
  endfacet
  facet normal -9.891765e-001 -1.467305e-001 0.000000e+000
    outer loop
      vertex   5.764416e-002 2.414729e+000 0.000000e+000
      vertex   5.764416e-002 2.414729e+000 6.000000e+000
      vertex   1.444582e-002 2.705949e+000 6.000000e+000
    endloop
  endfacet
  facet normal -9.987955e-001 -4.906767e-002 0.000000e+000
    outer loop
      vertex   1.444582e-002 2.705949e+000 0.000000e+000
      vertex   1.444582e-002 2.705949e+000 6.000000e+000
      vertex   0.000000e+000 3.000000e+000 0.000000e+000
    endloop
  endfacet
  facet normal -9.891765e-001 -1.467305e-001 0.000000e+000
    outer loop
      vertex   1.444582e-002 2.705949e+000 0.000000e+000
      vertex   5.764416e-002 2.414729e+000 0.000000e+000
      vertex   1.444582e-002 2.705949e+000 6.000000e+000
    endloop
  endfacet
  facet normal -9.987955e-001 -4.906767e-002 -0.000000e+000
    outer loop
      vertex   1.444582e-002 2.705949e+000 6.000000e+000
      vertex   0.000000e+000 3.000000e+000 6.000000e+000
      vertex   0.000000e+000 3.000000e+000 0.000000e+000
    endloop
  endfacet
  facet normal -9.700313e-001 -2.429802e-001 0.000000e+000
    outer loop
      vertex   5.764416e-002 2.414729e+000 0.000000e+000
      vertex   1.291790e-001 2.129146e+000 0.000000e+000
      vertex   5.764416e-002 2.414729e+000 6.000000e+000
    endloop
  endfacet
  facet normal -9.415441e-001 -3.368899e-001 0.000000e+000
    outer loop
      vertex   1.291790e-001 2.129146e+000 0.000000e+000
      vertex   2.283614e-001 1.851950e+000 0.000000e+000
      vertex   1.291790e-001 2.129146e+000 6.000000e+000
    endloop
  endfacet
  facet normal -8.032075e-001 -5.956993e-001 0.000000e+000
    outer loop
      vertex   5.055912e-001 1.333289e+000 0.000000e+000
      vertex   6.809686e-001 1.096820e+000 0.000000e+000
      vertex   5.055912e-001 1.333289e+000 6.000000e+000
    endloop
  endfacet
  facet normal -7.409511e-001 -6.715590e-001 0.000000e+000
    outer loop
      vertex   6.809686e-001 1.096820e+000 0.000000e+000
      vertex   8.786797e-001 8.786797e-001 0.000000e+000
      vertex   6.809686e-001 1.096820e+000 6.000000e+000
    endloop
  endfacet
  facet normal -6.715590e-001 -7.409511e-001 0.000000e+000
    outer loop
      vertex   8.786797e-001 8.786797e-001 0.000000e+000
      vertex   1.096820e+000 6.809686e-001 0.000000e+000
      vertex   8.786797e-001 8.786797e-001 6.000000e+000
    endloop
  endfacet
  facet normal -4.275551e-001 -9.039893e-001 0.000000e+000
    outer loop
      vertex   1.585810e+000 3.542362e-001 0.000000e+000
      vertex   1.851950e+000 2.283614e-001 0.000000e+000
      vertex   1.585810e+000 3.542362e-001 6.000000e+000
    endloop
  endfacet
  facet normal -1.000000e+000 0.000000e+000 -0.000000e+000
    outer loop
      vertex   0.000000e+000 3.000000e+000 6.000000e+000
      vertex   0.000000e+000 1.200000e+001 6.000000e+000
      vertex   0.000000e+000 3.000000e+000 0.000000e+000
    endloop
  endfacet
  facet normal -1.000000e+000 0.000000e+000 0.000000e+000
    outer loop
      vertex   0.000000e+000 3.000000e+000 0.000000e+000
      vertex   0.000000e+000 1.200000e+001 6.000000e+000
      vertex   0.000000e+000 1.200000e+001 0.000000e+000
    endloop
  endfacet
  facet normal -0.000000e+000 -0.000000e+000 1.000000e+000
    outer loop
      vertex   3.607931e+000 1.598074e+001 6.000000e+000
      vertex   6.000000e+000 1.300000e+001 6.000000e+000
      vertex   4.000000e+000 1.600000e+001 6.000000e+000
    endloop
  endfacet
  facet normal 0.000000e+000 0.000000e+000 1.000000e+000
    outer loop
      vertex   3.607931e+000 1.598074e+001 6.000000e+000
      vertex   3.219639e+000 1.592314e+001 6.000000e+000
      vertex   6.000000e+000 1.300000e+001 6.000000e+000
    endloop
  endfacet
  facet normal 0.000000e+000 0.000000e+000 1.000000e+000
    outer loop
      vertex   6.000000e+000 1.300000e+001 6.000000e+000
      vertex   3.219639e+000 1.592314e+001 6.000000e+000
      vertex   2.838861e+000 1.582776e+001 6.000000e+000
    endloop
  endfacet
  facet normal -0.000000e+000 -0.000000e+000 1.000000e+000
    outer loop
      vertex   2.469266e+000 1.569552e+001 6.000000e+000
      vertex   6.000000e+000 1.300000e+001 6.000000e+000
      vertex   2.838861e+000 1.582776e+001 6.000000e+000
    endloop
  endfacet
  facet normal 0.000000e+000 0.000000e+000 1.000000e+000
    outer loop
      vertex   2.469266e+000 1.569552e+001 6.000000e+000
      vertex   2.114413e+000 1.552769e+001 6.000000e+000
      vertex   6.000000e+000 1.300000e+001 6.000000e+000
    endloop
  endfacet
  facet normal 0.000000e+000 0.000000e+000 1.000000e+000
    outer loop
      vertex   6.000000e+000 1.300000e+001 6.000000e+000
      vertex   2.114413e+000 1.552769e+001 6.000000e+000
      vertex   1.777719e+000 1.532588e+001 6.000000e+000
    endloop
  endfacet
  facet normal -0.000000e+000 -0.000000e+000 1.000000e+000
    outer loop
      vertex   1.462427e+000 1.509204e+001 6.000000e+000
      vertex   6.000000e+000 1.300000e+001 6.000000e+000
      vertex   1.777719e+000 1.532588e+001 6.000000e+000
    endloop
  endfacet
  facet normal 0.000000e+000 0.000000e+000 1.000000e+000
    outer loop
      vertex   1.462427e+000 1.509204e+001 6.000000e+000
      vertex   1.171573e+000 1.482843e+001 6.000000e+000
      vertex   6.000000e+000 1.300000e+001 6.000000e+000
    endloop
  endfacet
  facet normal 0.000000e+000 0.000000e+000 1.000000e+000
    outer loop
      vertex   6.000000e+000 1.300000e+001 6.000000e+000
      vertex   1.171573e+000 1.482843e+001 6.000000e+000
      vertex   9.079582e-001 1.453757e+001 6.000000e+000
    endloop
  endfacet
  facet normal -0.000000e+000 -0.000000e+000 1.000000e+000
    outer loop
      vertex   6.741216e-001 1.422228e+001 6.000000e+000
      vertex   6.000000e+000 1.300000e+001 6.000000e+000
      vertex   9.079582e-001 1.453757e+001 6.000000e+000
    endloop
  endfacet
  facet normal 0.000000e+000 0.000000e+000 1.000000e+000
    outer loop
      vertex   6.741216e-001 1.422228e+001 6.000000e+000
      vertex   4.723149e-001 1.388559e+001 6.000000e+000
      vertex   6.000000e+000 1.300000e+001 6.000000e+000
    endloop
  endfacet
  facet normal 0.000000e+000 0.000000e+000 1.000000e+000
    outer loop
      vertex   6.000000e+000 1.300000e+001 6.000000e+000
      vertex   4.723149e-001 1.388559e+001 6.000000e+000
      vertex   3.044819e-001 1.353073e+001 6.000000e+000
    endloop
  endfacet
  facet normal -0.000000e+000 -0.000000e+000 1.000000e+000
    outer loop
      vertex   1.722387e-001 1.316114e+001 6.000000e+000
      vertex   6.000000e+000 1.300000e+001 6.000000e+000
      vertex   3.044819e-001 1.353073e+001 6.000000e+000
    endloop
  endfacet
  facet normal -0.000000e+000 0.000000e+000 1.000000e+000
    outer loop
      vertex   1.722387e-001 1.316114e+001 6.000000e+000
      vertex   3.000000e+000 1.100000e+001 6.000000e+000
      vertex   6.000000e+000 1.300000e+001 6.000000e+000
    endloop
  endfacet
  facet normal 0.000000e+000 0.000000e+000 1.000000e+000
    outer loop
      vertex   1.722387e-001 1.316114e+001 6.000000e+000
      vertex   7.685888e-002 1.278036e+001 6.000000e+000
      vertex   3.000000e+000 1.100000e+001 6.000000e+000
    endloop
  endfacet
  facet normal 0.000000e+000 0.000000e+000 1.000000e+000
    outer loop
      vertex   3.000000e+000 1.100000e+001 6.000000e+000
      vertex   7.685888e-002 1.278036e+001 6.000000e+000
      vertex   1.926109e-002 1.239207e+001 6.000000e+000
    endloop
  endfacet
  facet normal -0.000000e+000 -0.000000e+000 1.000000e+000
    outer loop
      vertex   0.000000e+000 1.200000e+001 6.000000e+000
      vertex   3.000000e+000 1.100000e+001 6.000000e+000
      vertex   1.926109e-002 1.239207e+001 6.000000e+000
    endloop
  endfacet
  facet normal -0.000000e+000 0.000000e+000 1.000000e+000
    outer loop
      vertex   0.000000e+000 1.200000e+001 6.000000e+000
      vertex   0.000000e+000 3.000000e+000 6.000000e+000
      vertex   3.000000e+000 1.100000e+001 6.000000e+000
    endloop
  endfacet
  facet normal -0.000000e+000 0.000000e+000 1.000000e+000
    outer loop
      vertex   3.000000e+000 1.100000e+001 6.000000e+000
      vertex   0.000000e+000 3.000000e+000 6.000000e+000
      vertex   3.000000e+000 3.500000e+000 6.000000e+000
    endloop
  endfacet
  facet normal 0.000000e+000 0.000000e+000 1.000000e+000
    outer loop
      vertex   3.000000e+000 3.500000e+000 6.000000e+000
      vertex   0.000000e+000 3.000000e+000 6.000000e+000
      vertex   1.444582e-002 2.705949e+000 6.000000e+000
    endloop
  endfacet
  facet normal 0.000000e+000 -0.000000e+000 1.000000e+000
    outer loop
      vertex   5.764416e-002 2.414729e+000 6.000000e+000
      vertex   3.000000e+000 3.500000e+000 6.000000e+000
      vertex   1.444582e-002 2.705949e+000 6.000000e+000
    endloop
  endfacet
  facet normal -0.000000e+000 0.000000e+000 1.000000e+000
    outer loop
      vertex   5.764416e-002 2.414729e+000 6.000000e+000
      vertex   1.291790e-001 2.129146e+000 6.000000e+000
      vertex   3.000000e+000 3.500000e+000 6.000000e+000
    endloop
  endfacet
  facet normal 0.000000e+000 0.000000e+000 1.000000e+000
    outer loop
      vertex   3.000000e+000 3.500000e+000 6.000000e+000
      vertex   1.291790e-001 2.129146e+000 6.000000e+000
      vertex   2.283614e-001 1.851950e+000 6.000000e+000
    endloop
  endfacet
  facet normal 0.000000e+000 -0.000000e+000 1.000000e+000
    outer loop
      vertex   3.542362e-001 1.585810e+000 6.000000e+000
      vertex   3.000000e+000 3.500000e+000 6.000000e+000
      vertex   2.283614e-001 1.851950e+000 6.000000e+000
    endloop
  endfacet
  facet normal -0.000000e+000 0.000000e+000 1.000000e+000
    outer loop
      vertex   3.542362e-001 1.585810e+000 6.000000e+000
      vertex   5.055912e-001 1.333289e+000 6.000000e+000
      vertex   3.000000e+000 3.500000e+000 6.000000e+000
    endloop
  endfacet
  facet normal 0.000000e+000 0.000000e+000 1.000000e+000
    outer loop
      vertex   3.000000e+000 3.500000e+000 6.000000e+000
      vertex   5.055912e-001 1.333289e+000 6.000000e+000
      vertex   6.809686e-001 1.096820e+000 6.000000e+000
    endloop
  endfacet
  facet normal 0.000000e+000 -0.000000e+000 1.000000e+000
    outer loop
      vertex   8.786797e-001 8.786797e-001 6.000000e+000
      vertex   3.000000e+000 3.500000e+000 6.000000e+000
      vertex   6.809686e-001 1.096820e+000 6.000000e+000
    endloop
  endfacet
  facet normal -0.000000e+000 0.000000e+000 1.000000e+000
    outer loop
      vertex   8.786797e-001 8.786797e-001 6.000000e+000
      vertex   1.096820e+000 6.809686e-001 6.000000e+000
      vertex   3.000000e+000 3.500000e+000 6.000000e+000
    endloop
  endfacet
  facet normal 0.000000e+000 0.000000e+000 1.000000e+000
    outer loop
      vertex   3.000000e+000 3.500000e+000 6.000000e+000
      vertex   1.096820e+000 6.809686e-001 6.000000e+000
      vertex   1.333289e+000 5.055912e-001 6.000000e+000
    endloop
  endfacet
  facet normal 0.000000e+000 0.000000e+000 1.000000e+000
    outer loop
      vertex   3.000000e+000 0.000000e+000 6.000000e+000
      vertex   1.333289e+000 5.055912e-001 6.000000e+000
      vertex   1.585810e+000 3.542362e-001 6.000000e+000
    endloop
  endfacet
  facet normal -0.000000e+000 -0.000000e+000 1.000000e+000
    outer loop
      vertex   1.851950e+000 2.283614e-001 6.000000e+000
      vertex   3.000000e+000 0.000000e+000 6.000000e+000
      vertex   1.585810e+000 3.542362e-001 6.000000e+000
    endloop
  endfacet
  facet normal 0.000000e+000 0.000000e+000 1.000000e+000
    outer loop
      vertex   1.851950e+000 2.283614e-001 6.000000e+000
      vertex   2.129146e+000 1.291790e-001 6.000000e+000
      vertex   3.000000e+000 0.000000e+000 6.000000e+000
    endloop
  endfacet
  facet normal 0.000000e+000 0.000000e+000 1.000000e+000
    outer loop
      vertex   3.000000e+000 0.000000e+000 6.000000e+000
      vertex   2.129146e+000 1.291790e-001 6.000000e+000
      vertex   2.705949e+000 1.444582e-002 6.000000e+000
    endloop
  endfacet
  facet normal 0.000000e+000 0.000000e+000 1.000000e+000
    outer loop
      vertex   2.705949e+000 1.444582e-002 6.000000e+000
      vertex   2.129146e+000 1.291790e-001 6.000000e+000
      vertex   2.414729e+000 5.764416e-002 6.000000e+000
    endloop
  endfacet
  facet normal -0.000000e+000 0.000000e+000 1.000000e+000
    outer loop
      vertex   1.333289e+000 5.055912e-001 6.000000e+000
      vertex   3.000000e+000 0.000000e+000 6.000000e+000
      vertex   3.000000e+000 3.500000e+000 6.000000e+000
    endloop
  endfacet
  facet normal -0.000000e+000 0.000000e+000 1.000000e+000
    outer loop
      vertex   3.000000e+000 3.500000e+000 6.000000e+000
      vertex   3.000000e+000 0.000000e+000 6.000000e+000
      vertex   4.500000e+000 0.000000e+000 6.000000e+000
    endloop
  endfacet
  facet normal 0.000000e+000 0.000000e+000 1.000000e+000
    outer loop
      vertex   4.500000e+000 3.500000e+000 6.000000e+000
      vertex   3.000000e+000 3.500000e+000 6.000000e+000
      vertex   4.500000e+000 0.000000e+000 6.000000e+000
    endloop
  endfacet
  facet normal 0.000000e+000 0.000000e+000 1.000000e+000
    outer loop
      vertex   3.000000e+000 1.100000e+001 6.000000e+000
      vertex   6.000000e+000 1.100000e+001 6.000000e+000
      vertex   6.000000e+000 1.300000e+001 6.000000e+000
    endloop
  endfacet
  facet normal -0.000000e+000 -0.000000e+000 1.000000e+000
    outer loop
      vertex   6.000000e+000 1.300000e+001 6.000000e+000
      vertex   2.000000e+001 1.300000e+001 6.000000e+000
      vertex   4.000000e+000 1.600000e+001 6.000000e+000
    endloop
  endfacet
  facet normal -0.000000e+000 0.000000e+000 1.000000e+000
    outer loop
      vertex   4.000000e+000 1.600000e+001 6.000000e+000
      vertex   2.000000e+001 1.300000e+001 6.000000e+000
      vertex   2.200000e+001 1.600000e+001 6.000000e+000
    endloop
  endfacet
  facet normal -0.000000e+000 0.000000e+000 1.000000e+000
    outer loop
      vertex   2.200000e+001 1.600000e+001 6.000000e+000
      vertex   2.000000e+001 1.300000e+001 6.000000e+000
      vertex   2.239207e+001 1.598074e+001 6.000000e+000
    endloop
  endfacet
  facet normal -0.000000e+000 0.000000e+000 1.000000e+000
    outer loop
      vertex   2.239207e+001 1.598074e+001 6.000000e+000
      vertex   2.000000e+001 1.300000e+001 6.000000e+000
      vertex   2.278036e+001 1.592314e+001 6.000000e+000
    endloop
  endfacet
  facet normal -0.000000e+000 0.000000e+000 1.000000e+000
    outer loop
      vertex   2.278036e+001 1.592314e+001 6.000000e+000
      vertex   2.000000e+001 1.300000e+001 6.000000e+000
      vertex   2.316114e+001 1.582776e+001 6.000000e+000
    endloop
  endfacet
  facet normal -0.000000e+000 0.000000e+000 1.000000e+000
    outer loop
      vertex   2.316114e+001 1.582776e+001 6.000000e+000
      vertex   2.000000e+001 1.300000e+001 6.000000e+000
      vertex   2.353073e+001 1.569552e+001 6.000000e+000
    endloop
  endfacet
  facet normal -0.000000e+000 0.000000e+000 1.000000e+000
    outer loop
      vertex   2.353073e+001 1.569552e+001 6.000000e+000
      vertex   2.000000e+001 1.300000e+001 6.000000e+000
      vertex   2.388559e+001 1.552769e+001 6.000000e+000
    endloop
  endfacet
  facet normal -0.000000e+000 0.000000e+000 1.000000e+000
    outer loop
      vertex   2.388559e+001 1.552769e+001 6.000000e+000
      vertex   2.000000e+001 1.300000e+001 6.000000e+000
      vertex   2.422228e+001 1.532588e+001 6.000000e+000
    endloop
  endfacet
  facet normal -0.000000e+000 0.000000e+000 1.000000e+000
    outer loop
      vertex   2.422228e+001 1.532588e+001 6.000000e+000
      vertex   2.000000e+001 1.300000e+001 6.000000e+000
      vertex   2.453757e+001 1.509204e+001 6.000000e+000
    endloop
  endfacet
  facet normal -0.000000e+000 0.000000e+000 1.000000e+000
    outer loop
      vertex   2.453757e+001 1.509204e+001 6.000000e+000
      vertex   2.000000e+001 1.300000e+001 6.000000e+000
      vertex   2.482843e+001 1.482843e+001 6.000000e+000
    endloop
  endfacet
  facet normal -0.000000e+000 0.000000e+000 1.000000e+000
    outer loop
      vertex   2.482843e+001 1.482843e+001 6.000000e+000
      vertex   2.000000e+001 1.300000e+001 6.000000e+000
      vertex   2.509204e+001 1.453757e+001 6.000000e+000
    endloop
  endfacet
  facet normal -0.000000e+000 0.000000e+000 1.000000e+000
    outer loop
      vertex   2.509204e+001 1.453757e+001 6.000000e+000
      vertex   2.000000e+001 1.300000e+001 6.000000e+000
      vertex   2.532588e+001 1.422228e+001 6.000000e+000
    endloop
  endfacet
  facet normal -0.000000e+000 0.000000e+000 1.000000e+000
    outer loop
      vertex   2.532588e+001 1.422228e+001 6.000000e+000
      vertex   2.000000e+001 1.300000e+001 6.000000e+000
      vertex   2.552769e+001 1.388559e+001 6.000000e+000
    endloop
  endfacet
  facet normal -0.000000e+000 0.000000e+000 1.000000e+000
    outer loop
      vertex   2.552769e+001 1.388559e+001 6.000000e+000
      vertex   2.000000e+001 1.300000e+001 6.000000e+000
      vertex   2.569552e+001 1.353073e+001 6.000000e+000
    endloop
  endfacet
  facet normal -0.000000e+000 0.000000e+000 1.000000e+000
    outer loop
      vertex   2.569552e+001 1.353073e+001 6.000000e+000
      vertex   2.000000e+001 1.300000e+001 6.000000e+000
      vertex   2.582776e+001 1.316114e+001 6.000000e+000
    endloop
  endfacet
  facet normal 0.000000e+000 0.000000e+000 1.000000e+000
    outer loop
      vertex   2.582776e+001 1.316114e+001 6.000000e+000
      vertex   2.000000e+001 1.300000e+001 6.000000e+000
      vertex   2.300000e+001 1.100000e+001 6.000000e+000
    endloop
  endfacet
  facet normal -0.000000e+000 0.000000e+000 1.000000e+000
    outer loop
      vertex   2.592314e+001 1.278036e+001 6.000000e+000
      vertex   2.300000e+001 1.100000e+001 6.000000e+000
      vertex   2.598074e+001 1.239207e+001 6.000000e+000
    endloop
  endfacet
  facet normal 0.000000e+000 0.000000e+000 1.000000e+000
    outer loop
      vertex   2.592314e+001 1.278036e+001 6.000000e+000
      vertex   2.582776e+001 1.316114e+001 6.000000e+000
      vertex   2.300000e+001 1.100000e+001 6.000000e+000
    endloop
  endfacet
  facet normal -0.000000e+000 0.000000e+000 1.000000e+000
    outer loop
      vertex   2.000000e+001 1.300000e+001 6.000000e+000
      vertex   2.000000e+001 1.100000e+001 6.000000e+000
      vertex   2.300000e+001 1.100000e+001 6.000000e+000
    endloop
  endfacet
  facet normal 0.000000e+000 -0.000000e+000 1.000000e+000
    outer loop
      vertex   2.594236e+001 2.414729e+000 6.000000e+000
      vertex   2.598555e+001 2.705949e+000 6.000000e+000
      vertex   2.300000e+001 3.500000e+000 6.000000e+000
    endloop
  endfacet
  facet normal 0.000000e+000 0.000000e+000 1.000000e+000
    outer loop
      vertex   2.587082e+001 2.129146e+000 6.000000e+000
      vertex   2.300000e+001 3.500000e+000 6.000000e+000
      vertex   2.577164e+001 1.851950e+000 6.000000e+000
    endloop
  endfacet
  facet normal 0.000000e+000 -0.000000e+000 1.000000e+000
    outer loop
      vertex   2.587082e+001 2.129146e+000 6.000000e+000
      vertex   2.594236e+001 2.414729e+000 6.000000e+000
      vertex   2.300000e+001 3.500000e+000 6.000000e+000
    endloop
  endfacet
  facet normal -0.000000e+000 0.000000e+000 1.000000e+000
    outer loop
      vertex   2.150000e+001 3.500000e+000 6.000000e+000
      vertex   2.150000e+001 -1.449218e-017 6.000000e+000
      vertex   2.300000e+001 3.500000e+000 6.000000e+000
    endloop
  endfacet
  facet normal -0.000000e+000 0.000000e+000 1.000000e+000
    outer loop
      vertex   2.300000e+001 3.500000e+000 6.000000e+000
      vertex   2.150000e+001 -1.449218e-017 6.000000e+000
      vertex   2.300000e+001 1.665335e-015 6.000000e+000
    endloop
  endfacet
  facet normal -0.000000e+000 0.000000e+000 1.000000e+000
    outer loop
      vertex   2.466671e+001 5.055912e-001 6.000000e+000
      vertex   2.300000e+001 1.665335e-015 6.000000e+000
      vertex   2.441419e+001 3.542362e-001 6.000000e+000
    endloop
  endfacet
  facet normal 0.000000e+000 0.000000e+000 1.000000e+000
    outer loop
      vertex   2.466671e+001 5.055912e-001 6.000000e+000
      vertex   2.300000e+001 3.500000e+000 6.000000e+000
      vertex   2.300000e+001 1.665335e-015 6.000000e+000
    endloop
  endfacet
  facet normal 0.000000e+000 -0.000000e+000 1.000000e+000
    outer loop
      vertex   2.466671e+001 5.055912e-001 6.000000e+000
      vertex   2.490318e+001 6.809686e-001 6.000000e+000
      vertex   2.300000e+001 3.500000e+000 6.000000e+000
    endloop
  endfacet
  facet normal -0.000000e+000 0.000000e+000 1.000000e+000
    outer loop
      vertex   2.300000e+001 3.500000e+000 6.000000e+000
      vertex   2.490318e+001 6.809686e-001 6.000000e+000
      vertex   2.512132e+001 8.786797e-001 6.000000e+000
    endloop
  endfacet
  facet normal 0.000000e+000 0.000000e+000 1.000000e+000
    outer loop
      vertex   2.531903e+001 1.096820e+000 6.000000e+000
      vertex   2.300000e+001 3.500000e+000 6.000000e+000
      vertex   2.512132e+001 8.786797e-001 6.000000e+000
    endloop
  endfacet
  facet normal 0.000000e+000 -0.000000e+000 1.000000e+000
    outer loop
      vertex   2.531903e+001 1.096820e+000 6.000000e+000
      vertex   2.549441e+001 1.333289e+000 6.000000e+000
      vertex   2.300000e+001 3.500000e+000 6.000000e+000
    endloop
  endfacet
  facet normal -0.000000e+000 0.000000e+000 1.000000e+000
    outer loop
      vertex   2.300000e+001 3.500000e+000 6.000000e+000
      vertex   2.549441e+001 1.333289e+000 6.000000e+000
      vertex   2.564576e+001 1.585810e+000 6.000000e+000
    endloop
  endfacet
  facet normal 0.000000e+000 0.000000e+000 1.000000e+000
    outer loop
      vertex   2.577164e+001 1.851950e+000 6.000000e+000
      vertex   2.300000e+001 3.500000e+000 6.000000e+000
      vertex   2.564576e+001 1.585810e+000 6.000000e+000
    endloop
  endfacet
  facet normal 0.000000e+000 -0.000000e+000 1.000000e+000
    outer loop
      vertex   2.329405e+001 1.444582e-002 6.000000e+000
      vertex   2.387085e+001 1.291790e-001 6.000000e+000
      vertex   2.300000e+001 1.665335e-015 6.000000e+000
    endloop
  endfacet
  facet normal 0.000000e+000 0.000000e+000 1.000000e+000
    outer loop
      vertex   2.329405e+001 1.444582e-002 6.000000e+000
      vertex   2.358527e+001 5.764416e-002 6.000000e+000
      vertex   2.387085e+001 1.291790e-001 6.000000e+000
    endloop
  endfacet
  facet normal 0.000000e+000 -0.000000e+000 1.000000e+000
    outer loop
      vertex   2.387085e+001 1.291790e-001 6.000000e+000
      vertex   2.414805e+001 2.283614e-001 6.000000e+000
      vertex   2.300000e+001 1.665335e-015 6.000000e+000
    endloop
  endfacet
  facet normal 0.000000e+000 0.000000e+000 1.000000e+000
    outer loop
      vertex   2.300000e+001 1.665335e-015 6.000000e+000
      vertex   2.414805e+001 2.283614e-001 6.000000e+000
      vertex   2.441419e+001 3.542362e-001 6.000000e+000
    endloop
  endfacet
  facet normal 0.000000e+000 -0.000000e+000 1.000000e+000
    outer loop
      vertex   2.598555e+001 2.705949e+000 6.000000e+000
      vertex   2.600000e+001 3.000000e+000 6.000000e+000
      vertex   2.300000e+001 3.500000e+000 6.000000e+000
    endloop
  endfacet
  facet normal -0.000000e+000 -0.000000e+000 1.000000e+000
    outer loop
      vertex   2.300000e+001 3.500000e+000 6.000000e+000
      vertex   2.600000e+001 3.000000e+000 6.000000e+000
      vertex   2.300000e+001 1.100000e+001 6.000000e+000
    endloop
  endfacet
  facet normal -0.000000e+000 0.000000e+000 1.000000e+000
    outer loop
      vertex   2.300000e+001 1.100000e+001 6.000000e+000
      vertex   2.600000e+001 3.000000e+000 6.000000e+000
      vertex   2.600000e+001 1.200000e+001 6.000000e+000
    endloop
  endfacet
  facet normal -0.000000e+000 0.000000e+000 1.000000e+000
    outer loop
      vertex   2.598074e+001 1.239207e+001 6.000000e+000
      vertex   2.300000e+001 1.100000e+001 6.000000e+000
      vertex   2.600000e+001 1.200000e+001 6.000000e+000
    endloop
  endfacet
  facet normal 0.000000e+000 -0.000000e+000 -1.000000e+000
    outer loop
      vertex   0.000000e+000 1.200000e+001 0.000000e+000
      vertex   3.000000e+000 1.100000e+001 0.000000e+000
      vertex   0.000000e+000 3.000000e+000 0.000000e+000
    endloop
  endfacet
  facet normal 0.000000e+000 0.000000e+000 -1.000000e+000
    outer loop
      vertex   0.000000e+000 1.200000e+001 0.000000e+000
      vertex   1.926109e-002 1.239207e+001 0.000000e+000
      vertex   3.000000e+000 1.100000e+001 0.000000e+000
    endloop
  endfacet
  facet normal 0.000000e+000 0.000000e+000 -1.000000e+000
    outer loop
      vertex   3.000000e+000 1.100000e+001 0.000000e+000
      vertex   1.926109e-002 1.239207e+001 0.000000e+000
      vertex   7.685888e-002 1.278036e+001 0.000000e+000
    endloop
  endfacet
  facet normal -0.000000e+000 -0.000000e+000 -1.000000e+000
    outer loop
      vertex   1.722387e-001 1.316114e+001 0.000000e+000
      vertex   3.000000e+000 1.100000e+001 0.000000e+000
      vertex   7.685888e-002 1.278036e+001 0.000000e+000
    endloop
  endfacet
  facet normal 0.000000e+000 -0.000000e+000 -1.000000e+000
    outer loop
      vertex   1.722387e-001 1.316114e+001 0.000000e+000
      vertex   6.000000e+000 1.300000e+001 0.000000e+000
      vertex   3.000000e+000 1.100000e+001 0.000000e+000
    endloop
  endfacet
  facet normal 0.000000e+000 0.000000e+000 -1.000000e+000
    outer loop
      vertex   1.722387e-001 1.316114e+001 0.000000e+000
      vertex   3.044819e-001 1.353073e+001 0.000000e+000
      vertex   6.000000e+000 1.300000e+001 0.000000e+000
    endloop
  endfacet
  facet normal 0.000000e+000 0.000000e+000 -1.000000e+000
    outer loop
      vertex   6.000000e+000 1.300000e+001 0.000000e+000
      vertex   3.044819e-001 1.353073e+001 0.000000e+000
      vertex   4.723149e-001 1.388559e+001 0.000000e+000
    endloop
  endfacet
  facet normal -0.000000e+000 -0.000000e+000 -1.000000e+000
    outer loop
      vertex   6.741216e-001 1.422228e+001 0.000000e+000
      vertex   6.000000e+000 1.300000e+001 0.000000e+000
      vertex   4.723149e-001 1.388559e+001 0.000000e+000
    endloop
  endfacet
  facet normal 0.000000e+000 0.000000e+000 -1.000000e+000
    outer loop
      vertex   6.741216e-001 1.422228e+001 0.000000e+000
      vertex   9.079582e-001 1.453757e+001 0.000000e+000
      vertex   6.000000e+000 1.300000e+001 0.000000e+000
    endloop
  endfacet
  facet normal 0.000000e+000 0.000000e+000 -1.000000e+000
    outer loop
      vertex   6.000000e+000 1.300000e+001 0.000000e+000
      vertex   9.079582e-001 1.453757e+001 0.000000e+000
      vertex   1.171573e+000 1.482843e+001 0.000000e+000
    endloop
  endfacet
  facet normal -0.000000e+000 -0.000000e+000 -1.000000e+000
    outer loop
      vertex   1.462427e+000 1.509204e+001 0.000000e+000
      vertex   6.000000e+000 1.300000e+001 0.000000e+000
      vertex   1.171573e+000 1.482843e+001 0.000000e+000
    endloop
  endfacet
  facet normal 0.000000e+000 0.000000e+000 -1.000000e+000
    outer loop
      vertex   1.462427e+000 1.509204e+001 0.000000e+000
      vertex   1.777719e+000 1.532588e+001 0.000000e+000
      vertex   6.000000e+000 1.300000e+001 0.000000e+000
    endloop
  endfacet
  facet normal 0.000000e+000 0.000000e+000 -1.000000e+000
    outer loop
      vertex   6.000000e+000 1.300000e+001 0.000000e+000
      vertex   1.777719e+000 1.532588e+001 0.000000e+000
      vertex   2.114413e+000 1.552769e+001 0.000000e+000
    endloop
  endfacet
  facet normal -0.000000e+000 -0.000000e+000 -1.000000e+000
    outer loop
      vertex   2.469266e+000 1.569552e+001 0.000000e+000
      vertex   6.000000e+000 1.300000e+001 0.000000e+000
      vertex   2.114413e+000 1.552769e+001 0.000000e+000
    endloop
  endfacet
  facet normal 0.000000e+000 0.000000e+000 -1.000000e+000
    outer loop
      vertex   2.469266e+000 1.569552e+001 0.000000e+000
      vertex   2.838861e+000 1.582776e+001 0.000000e+000
      vertex   6.000000e+000 1.300000e+001 0.000000e+000
    endloop
  endfacet
  facet normal 0.000000e+000 0.000000e+000 -1.000000e+000
    outer loop
      vertex   6.000000e+000 1.300000e+001 0.000000e+000
      vertex   2.838861e+000 1.582776e+001 0.000000e+000
      vertex   3.219639e+000 1.592314e+001 0.000000e+000
    endloop
  endfacet
  facet normal -0.000000e+000 -0.000000e+000 -1.000000e+000
    outer loop
      vertex   3.607931e+000 1.598074e+001 0.000000e+000
      vertex   6.000000e+000 1.300000e+001 0.000000e+000
      vertex   3.219639e+000 1.592314e+001 0.000000e+000
    endloop
  endfacet
  facet normal 0.000000e+000 0.000000e+000 -1.000000e+000
    outer loop
      vertex   3.607931e+000 1.598074e+001 0.000000e+000
      vertex   4.000000e+000 1.600000e+001 0.000000e+000
      vertex   6.000000e+000 1.300000e+001 0.000000e+000
    endloop
  endfacet
  facet normal 0.000000e+000 0.000000e+000 -1.000000e+000
    outer loop
      vertex   6.000000e+000 1.300000e+001 0.000000e+000
      vertex   4.000000e+000 1.600000e+001 0.000000e+000
      vertex   2.200000e+001 1.600000e+001 0.000000e+000
    endloop
  endfacet
  facet normal 0.000000e+000 0.000000e+000 -1.000000e+000
    outer loop
      vertex   2.000000e+001 1.300000e+001 0.000000e+000
      vertex   2.200000e+001 1.600000e+001 0.000000e+000
      vertex   2.239207e+001 1.598074e+001 0.000000e+000
    endloop
  endfacet
  facet normal -0.000000e+000 0.000000e+000 -1.000000e+000
    outer loop
      vertex   2.278036e+001 1.592314e+001 0.000000e+000
      vertex   2.000000e+001 1.300000e+001 0.000000e+000
      vertex   2.239207e+001 1.598074e+001 0.000000e+000
    endloop
  endfacet
  facet normal 0.000000e+000 -0.000000e+000 -1.000000e+000
    outer loop
      vertex   2.278036e+001 1.592314e+001 0.000000e+000
      vertex   2.316114e+001 1.582776e+001 0.000000e+000
      vertex   2.000000e+001 1.300000e+001 0.000000e+000
    endloop
  endfacet
  facet normal 0.000000e+000 0.000000e+000 -1.000000e+000
    outer loop
      vertex   2.000000e+001 1.300000e+001 0.000000e+000
      vertex   2.316114e+001 1.582776e+001 0.000000e+000
      vertex   2.353073e+001 1.569552e+001 0.000000e+000
    endloop
  endfacet
  facet normal -0.000000e+000 0.000000e+000 -1.000000e+000
    outer loop
      vertex   2.388559e+001 1.552769e+001 0.000000e+000
      vertex   2.000000e+001 1.300000e+001 0.000000e+000
      vertex   2.353073e+001 1.569552e+001 0.000000e+000
    endloop
  endfacet
  facet normal 0.000000e+000 -0.000000e+000 -1.000000e+000
    outer loop
      vertex   2.388559e+001 1.552769e+001 0.000000e+000
      vertex   2.422228e+001 1.532588e+001 0.000000e+000
      vertex   2.000000e+001 1.300000e+001 0.000000e+000
    endloop
  endfacet
  facet normal 0.000000e+000 0.000000e+000 -1.000000e+000
    outer loop
      vertex   2.000000e+001 1.300000e+001 0.000000e+000
      vertex   2.422228e+001 1.532588e+001 0.000000e+000
      vertex   2.453757e+001 1.509204e+001 0.000000e+000
    endloop
  endfacet
  facet normal -0.000000e+000 0.000000e+000 -1.000000e+000
    outer loop
      vertex   2.482843e+001 1.482843e+001 0.000000e+000
      vertex   2.000000e+001 1.300000e+001 0.000000e+000
      vertex   2.453757e+001 1.509204e+001 0.000000e+000
    endloop
  endfacet
  facet normal 0.000000e+000 -0.000000e+000 -1.000000e+000
    outer loop
      vertex   2.482843e+001 1.482843e+001 0.000000e+000
      vertex   2.509204e+001 1.453757e+001 0.000000e+000
      vertex   2.000000e+001 1.300000e+001 0.000000e+000
    endloop
  endfacet
  facet normal 0.000000e+000 0.000000e+000 -1.000000e+000
    outer loop
      vertex   2.000000e+001 1.300000e+001 0.000000e+000
      vertex   2.509204e+001 1.453757e+001 0.000000e+000
      vertex   2.532588e+001 1.422228e+001 0.000000e+000
    endloop
  endfacet
  facet normal -0.000000e+000 0.000000e+000 -1.000000e+000
    outer loop
      vertex   2.552769e+001 1.388559e+001 0.000000e+000
      vertex   2.000000e+001 1.300000e+001 0.000000e+000
      vertex   2.532588e+001 1.422228e+001 0.000000e+000
    endloop
  endfacet
  facet normal 0.000000e+000 -0.000000e+000 -1.000000e+000
    outer loop
      vertex   2.552769e+001 1.388559e+001 0.000000e+000
      vertex   2.569552e+001 1.353073e+001 0.000000e+000
      vertex   2.000000e+001 1.300000e+001 0.000000e+000
    endloop
  endfacet
  facet normal 0.000000e+000 0.000000e+000 -1.000000e+000
    outer loop
      vertex   2.000000e+001 1.300000e+001 0.000000e+000
      vertex   2.569552e+001 1.353073e+001 0.000000e+000
      vertex   2.582776e+001 1.316114e+001 0.000000e+000
    endloop
  endfacet
  facet normal 0.000000e+000 0.000000e+000 -1.000000e+000
    outer loop
      vertex   2.300000e+001 1.100000e+001 0.000000e+000
      vertex   2.582776e+001 1.316114e+001 0.000000e+000
      vertex   2.592314e+001 1.278036e+001 0.000000e+000
    endloop
  endfacet
  facet normal -0.000000e+000 0.000000e+000 -1.000000e+000
    outer loop
      vertex   2.598074e+001 1.239207e+001 0.000000e+000
      vertex   2.300000e+001 1.100000e+001 0.000000e+000
      vertex   2.592314e+001 1.278036e+001 0.000000e+000
    endloop
  endfacet
  facet normal 0.000000e+000 -0.000000e+000 -1.000000e+000
    outer loop
      vertex   2.598074e+001 1.239207e+001 0.000000e+000
      vertex   2.600000e+001 1.200000e+001 0.000000e+000
      vertex   2.300000e+001 1.100000e+001 0.000000e+000
    endloop
  endfacet
  facet normal 0.000000e+000 0.000000e+000 -1.000000e+000
    outer loop
      vertex   2.300000e+001 1.100000e+001 0.000000e+000
      vertex   2.600000e+001 1.200000e+001 0.000000e+000
      vertex   2.600000e+001 3.000000e+000 0.000000e+000
    endloop
  endfacet
  facet normal 0.000000e+000 -0.000000e+000 -1.000000e+000
    outer loop
      vertex   2.300000e+001 3.500000e+000 0.000000e+000
      vertex   2.600000e+001 3.000000e+000 0.000000e+000
      vertex   2.598555e+001 2.705949e+000 0.000000e+000
    endloop
  endfacet
  facet normal 0.000000e+000 0.000000e+000 -1.000000e+000
    outer loop
      vertex   2.594236e+001 2.414729e+000 0.000000e+000
      vertex   2.300000e+001 3.500000e+000 0.000000e+000
      vertex   2.598555e+001 2.705949e+000 0.000000e+000
    endloop
  endfacet
  facet normal -0.000000e+000 0.000000e+000 -1.000000e+000
    outer loop
      vertex   2.594236e+001 2.414729e+000 0.000000e+000
      vertex   2.587082e+001 2.129146e+000 0.000000e+000
      vertex   2.300000e+001 3.500000e+000 0.000000e+000
    endloop
  endfacet
  facet normal 0.000000e+000 -0.000000e+000 -1.000000e+000
    outer loop
      vertex   2.300000e+001 3.500000e+000 0.000000e+000
      vertex   2.587082e+001 2.129146e+000 0.000000e+000
      vertex   2.577164e+001 1.851950e+000 0.000000e+000
    endloop
  endfacet
  facet normal 0.000000e+000 0.000000e+000 -1.000000e+000
    outer loop
      vertex   2.564576e+001 1.585810e+000 0.000000e+000
      vertex   2.300000e+001 3.500000e+000 0.000000e+000
      vertex   2.577164e+001 1.851950e+000 0.000000e+000
    endloop
  endfacet
  facet normal -0.000000e+000 0.000000e+000 -1.000000e+000
    outer loop
      vertex   2.564576e+001 1.585810e+000 0.000000e+000
      vertex   2.549441e+001 1.333289e+000 0.000000e+000
      vertex   2.300000e+001 3.500000e+000 0.000000e+000
    endloop
  endfacet
  facet normal 0.000000e+000 -0.000000e+000 -1.000000e+000
    outer loop
      vertex   2.300000e+001 3.500000e+000 0.000000e+000
      vertex   2.549441e+001 1.333289e+000 0.000000e+000
      vertex   2.531903e+001 1.096820e+000 0.000000e+000
    endloop
  endfacet
  facet normal 0.000000e+000 0.000000e+000 -1.000000e+000
    outer loop
      vertex   2.512132e+001 8.786797e-001 0.000000e+000
      vertex   2.300000e+001 3.500000e+000 0.000000e+000
      vertex   2.531903e+001 1.096820e+000 0.000000e+000
    endloop
  endfacet
  facet normal -0.000000e+000 0.000000e+000 -1.000000e+000
    outer loop
      vertex   2.512132e+001 8.786797e-001 0.000000e+000
      vertex   2.490318e+001 6.809686e-001 0.000000e+000
      vertex   2.300000e+001 3.500000e+000 0.000000e+000
    endloop
  endfacet
  facet normal 0.000000e+000 -0.000000e+000 -1.000000e+000
    outer loop
      vertex   2.300000e+001 3.500000e+000 0.000000e+000
      vertex   2.490318e+001 6.809686e-001 0.000000e+000
      vertex   2.466671e+001 5.055912e-001 0.000000e+000
    endloop
  endfacet
  facet normal 0.000000e+000 -0.000000e+000 -1.000000e+000
    outer loop
      vertex   2.300000e+001 1.665335e-015 0.000000e+000
      vertex   2.466671e+001 5.055912e-001 0.000000e+000
      vertex   2.441419e+001 3.542362e-001 0.000000e+000
    endloop
  endfacet
  facet normal -0.000000e+000 0.000000e+000 -1.000000e+000
    outer loop
      vertex   2.414805e+001 2.283614e-001 0.000000e+000
      vertex   2.300000e+001 1.665335e-015 0.000000e+000
      vertex   2.441419e+001 3.542362e-001 0.000000e+000
    endloop
  endfacet
  facet normal 0.000000e+000 0.000000e+000 -1.000000e+000
    outer loop
      vertex   2.414805e+001 2.283614e-001 0.000000e+000
      vertex   2.387085e+001 1.291790e-001 0.000000e+000
      vertex   2.300000e+001 1.665335e-015 0.000000e+000
    endloop
  endfacet
  facet normal 0.000000e+000 -0.000000e+000 -1.000000e+000
    outer loop
      vertex   2.300000e+001 1.665335e-015 0.000000e+000
      vertex   2.387085e+001 1.291790e-001 0.000000e+000
      vertex   2.329405e+001 1.444582e-002 0.000000e+000
    endloop
  endfacet
  facet normal 0.000000e+000 -0.000000e+000 -1.000000e+000
    outer loop
      vertex   2.329405e+001 1.444582e-002 0.000000e+000
      vertex   2.387085e+001 1.291790e-001 0.000000e+000
      vertex   2.358527e+001 5.764416e-002 0.000000e+000
    endloop
  endfacet
  facet normal -0.000000e+000 0.000000e+000 -1.000000e+000
    outer loop
      vertex   2.466671e+001 5.055912e-001 0.000000e+000
      vertex   2.300000e+001 1.665335e-015 0.000000e+000
      vertex   2.300000e+001 3.500000e+000 0.000000e+000
    endloop
  endfacet
  facet normal 0.000000e+000 -0.000000e+000 -1.000000e+000
    outer loop
      vertex   2.300000e+001 3.500000e+000 0.000000e+000
      vertex   2.300000e+001 1.665335e-015 0.000000e+000
      vertex   2.150000e+001 -1.449218e-017 0.000000e+000
    endloop
  endfacet
  facet normal 0.000000e+000 -0.000000e+000 -1.000000e+000
    outer loop
      vertex   2.150000e+001 3.500000e+000 0.000000e+000
      vertex   2.300000e+001 3.500000e+000 0.000000e+000
      vertex   2.150000e+001 -1.449218e-017 0.000000e+000
    endloop
  endfacet
  facet normal 0.000000e+000 0.000000e+000 -1.000000e+000
    outer loop
      vertex   2.300000e+001 3.500000e+000 0.000000e+000
      vertex   2.300000e+001 1.100000e+001 0.000000e+000
      vertex   2.600000e+001 3.000000e+000 0.000000e+000
    endloop
  endfacet
  facet normal 0.000000e+000 0.000000e+000 -1.000000e+000
    outer loop
      vertex   2.000000e+001 1.100000e+001 0.000000e+000
      vertex   2.000000e+001 1.300000e+001 0.000000e+000
      vertex   2.300000e+001 1.100000e+001 0.000000e+000
    endloop
  endfacet
  facet normal 0.000000e+000 0.000000e+000 -1.000000e+000
    outer loop
      vertex   2.300000e+001 1.100000e+001 0.000000e+000
      vertex   2.000000e+001 1.300000e+001 0.000000e+000
      vertex   2.582776e+001 1.316114e+001 0.000000e+000
    endloop
  endfacet
  facet normal 0.000000e+000 0.000000e+000 -1.000000e+000
    outer loop
      vertex   2.000000e+001 1.300000e+001 0.000000e+000
      vertex   6.000000e+000 1.300000e+001 0.000000e+000
      vertex   2.200000e+001 1.600000e+001 0.000000e+000
    endloop
  endfacet
  facet normal -0.000000e+000 -0.000000e+000 -1.000000e+000
    outer loop
      vertex   6.000000e+000 1.300000e+001 0.000000e+000
      vertex   6.000000e+000 1.100000e+001 0.000000e+000
      vertex   3.000000e+000 1.100000e+001 0.000000e+000
    endloop
  endfacet
  facet normal 0.000000e+000 -0.000000e+000 -1.000000e+000
    outer loop
      vertex   3.000000e+000 1.100000e+001 0.000000e+000
      vertex   3.000000e+000 3.500000e+000 0.000000e+000
      vertex   0.000000e+000 3.000000e+000 0.000000e+000
    endloop
  endfacet
  facet normal 0.000000e+000 -0.000000e+000 -1.000000e+000
    outer loop
      vertex   0.000000e+000 3.000000e+000 0.000000e+000
      vertex   3.000000e+000 3.500000e+000 0.000000e+000
      vertex   1.444582e-002 2.705949e+000 0.000000e+000
    endloop
  endfacet
  facet normal 0.000000e+000 -0.000000e+000 -1.000000e+000
    outer loop
      vertex   1.444582e-002 2.705949e+000 0.000000e+000
      vertex   3.000000e+000 3.500000e+000 0.000000e+000
      vertex   5.764416e-002 2.414729e+000 0.000000e+000
    endloop
  endfacet
  facet normal 0.000000e+000 -0.000000e+000 -1.000000e+000
    outer loop
      vertex   5.764416e-002 2.414729e+000 0.000000e+000
      vertex   3.000000e+000 3.500000e+000 0.000000e+000
      vertex   1.291790e-001 2.129146e+000 0.000000e+000
    endloop
  endfacet
  facet normal 0.000000e+000 -0.000000e+000 -1.000000e+000
    outer loop
      vertex   1.291790e-001 2.129146e+000 0.000000e+000
      vertex   3.000000e+000 3.500000e+000 0.000000e+000
      vertex   2.283614e-001 1.851950e+000 0.000000e+000
    endloop
  endfacet
  facet normal 0.000000e+000 -0.000000e+000 -1.000000e+000
    outer loop
      vertex   2.283614e-001 1.851950e+000 0.000000e+000
      vertex   3.000000e+000 3.500000e+000 0.000000e+000
      vertex   3.542362e-001 1.585810e+000 0.000000e+000
    endloop
  endfacet
  facet normal 0.000000e+000 -0.000000e+000 -1.000000e+000
    outer loop
      vertex   3.542362e-001 1.585810e+000 0.000000e+000
      vertex   3.000000e+000 3.500000e+000 0.000000e+000
      vertex   5.055912e-001 1.333289e+000 0.000000e+000
    endloop
  endfacet
  facet normal 0.000000e+000 -0.000000e+000 -1.000000e+000
    outer loop
      vertex   5.055912e-001 1.333289e+000 0.000000e+000
      vertex   3.000000e+000 3.500000e+000 0.000000e+000
      vertex   6.809686e-001 1.096820e+000 0.000000e+000
    endloop
  endfacet
  facet normal 0.000000e+000 -0.000000e+000 -1.000000e+000
    outer loop
      vertex   6.809686e-001 1.096820e+000 0.000000e+000
      vertex   3.000000e+000 3.500000e+000 0.000000e+000
      vertex   8.786797e-001 8.786797e-001 0.000000e+000
    endloop
  endfacet
  facet normal 0.000000e+000 -0.000000e+000 -1.000000e+000
    outer loop
      vertex   8.786797e-001 8.786797e-001 0.000000e+000
      vertex   3.000000e+000 3.500000e+000 0.000000e+000
      vertex   1.096820e+000 6.809686e-001 0.000000e+000
    endloop
  endfacet
  facet normal 0.000000e+000 -0.000000e+000 -1.000000e+000
    outer loop
      vertex   1.096820e+000 6.809686e-001 0.000000e+000
      vertex   3.000000e+000 3.500000e+000 0.000000e+000
      vertex   1.333289e+000 5.055912e-001 0.000000e+000
    endloop
  endfacet
  facet normal 0.000000e+000 0.000000e+000 -1.000000e+000
    outer loop
      vertex   1.333289e+000 5.055912e-001 0.000000e+000
      vertex   3.000000e+000 3.500000e+000 0.000000e+000
      vertex   3.000000e+000 0.000000e+000 0.000000e+000
    endloop
  endfacet
  facet normal -0.000000e+000 -0.000000e+000 -1.000000e+000
    outer loop
      vertex   1.585810e+000 3.542362e-001 0.000000e+000
      vertex   3.000000e+000 0.000000e+000 0.000000e+000
      vertex   1.851950e+000 2.283614e-001 0.000000e+000
    endloop
  endfacet
  facet normal 0.000000e+000 0.000000e+000 -1.000000e+000
    outer loop
      vertex   1.585810e+000 3.542362e-001 0.000000e+000
      vertex   1.333289e+000 5.055912e-001 0.000000e+000
      vertex   3.000000e+000 0.000000e+000 0.000000e+000
    endloop
  endfacet
  facet normal -0.000000e+000 -0.000000e+000 -1.000000e+000
    outer loop
      vertex   4.500000e+000 3.500000e+000 0.000000e+000
      vertex   4.500000e+000 0.000000e+000 0.000000e+000
      vertex   3.000000e+000 3.500000e+000 0.000000e+000
    endloop
  endfacet
  facet normal -0.000000e+000 -0.000000e+000 -1.000000e+000
    outer loop
      vertex   3.000000e+000 3.500000e+000 0.000000e+000
      vertex   4.500000e+000 0.000000e+000 0.000000e+000
      vertex   3.000000e+000 0.000000e+000 0.000000e+000
    endloop
  endfacet
  facet normal -0.000000e+000 -0.000000e+000 -1.000000e+000
    outer loop
      vertex   1.851950e+000 2.283614e-001 0.000000e+000
      vertex   3.000000e+000 0.000000e+000 0.000000e+000
      vertex   2.129146e+000 1.291790e-001 0.000000e+000
    endloop
  endfacet
  facet normal -0.000000e+000 -0.000000e+000 -1.000000e+000
    outer loop
      vertex   2.129146e+000 1.291790e-001 0.000000e+000
      vertex   3.000000e+000 0.000000e+000 0.000000e+000
      vertex   2.705949e+000 1.444582e-002 0.000000e+000
    endloop
  endfacet
  facet normal 0.000000e+000 0.000000e+000 -1.000000e+000
    outer loop
      vertex   2.414729e+000 5.764416e-002 0.000000e+000
      vertex   2.129146e+000 1.291790e-001 0.000000e+000
      vertex   2.705949e+000 1.444582e-002 0.000000e+000
    endloop
  endfacet
endsolid
